<svg xmlns="http://www.w3.org/2000/svg" xmlns:xlink="http://www.w3.org/1999/xlink" xmlns:lucid="lucid" width="1191" height="811"><g transform="translate(-120.00000000000003 -89)" lucid:page-tab-id="0_0"><path d="M180 180h1040v242.2H180z" stroke="#000" stroke-opacity="0" stroke-width="3" fill="#c7e8ac" fill-opacity=".45"/><path d="M180 422.2h1040v159.22H180z" stroke="#000" stroke-opacity="0" stroke-width="3" fill="#c1e4f7" fill-opacity=".45"/><path d="M180 581.42h1040v265.25H180z" stroke="#000" stroke-opacity="0" stroke-width="3" fill="#f9d2de" fill-opacity=".45"/><path d="M1200 400.8L962.34 200 724.68 400.8h144.84c1.02 1.22 1.02 2.43 1.02 4.25 0 4.86 2.04 12.14 2.04 20.63 1.02 9.1 1.02 19.4 1.02 31.55 0 6.06-1.02 12.13-2.04 18.8-1.02 6.68-2.04 13.35-4.08 20.63-2.04 7.28-3.06 15.17-6.12 22.45-2.04 4.25-3.06 7.9-5.1 12.14-1.02 3.64-3.06 7.9-5.1 11.53-3.06 8.5-9.18 16.38-14.28 24.87-2.04 4.25-5.1 8.5-8.16 12.13-3.06 4.25-6.12 8.5-10.2 12.74-7.14 8.5-14.28 17-22.44 24.9-5.1 4.23-9.18 8.48-13.26 12.73-4.08 3.64-9.18 7.28-13.26 10.92-8.16 7.88-21.42 16.38-33.66 24.87l-9.18 6.07c-1.02.6 2.04-.62 1.02-.62v.6l-1.02.6-3.06 1.23-4.08 2.43-17.34 10.92c-6.12 3.64-12.24 6.68-19.38 9.7l-19.38 9.1c-13.26 6.68-28.56 11.54-42.84 17.6-14.28 4.86-29.58 9.7-43.86 14.56-15.3 4.87-30.6 9.1-45.9 13.36-15.3 3.64-30.6 7.28-44.88 10.92-15.3 3.64-30.6 6.67-44.88 9.7-28.56 5.47-57.12 10.32-83.64 13.96-25.5 4.25-49.98 7.28-71.4 9.7-21.42 2.43-40.8 4.25-56.1 6.07-31.62 2.44-49.98 3.65-49.98 3.65s18.36.6 49.98 1.22c16.32 0 35.7 0 57.12-.6 22.44 0 47.94-.62 75.48-1.83 27.54-1.82 57.12-3.64 88.74-6.67 15.3-1.22 31.62-3.04 47.94-4.86 16.32-2.4 33.66-4.23 51-6.66 16.32-3.03 33.66-6.07 51-9.1 17.34-3.64 34.68-7.28 53.04-11.53 17.34-4.84 34.68-9.1 52.02-14.55l25.5-8.5c9.18-3.02 17.34-6.06 25.5-9.7l25.5-10.3 6.12-2.44 3.06-1.8 1.02-.6h1.02s3.06-1.83 2.04-1.23l10.2-5.46c14.28-7.27 27.54-13.33 42.84-22.43 7.14-4.86 14.28-9.1 21.42-13.35 7.14-4.25 13.26-9.1 19.38-13.35 13.26-8.5 24.48-18.2 36.72-27.3l15.3-14.56c5.1-4.84 10.2-9.7 15.3-13.94 9.18-10.3 18.36-19.4 25.5-29.73 4.08-4.85 8.16-9.7 11.22-14.56 4.08-4.24 7.14-9.1 10.2-13.95 6.12-9.7 11.22-18.8 16.32-27.9 4.08-9.1 8.16-18.2 12.24-26.7 3.06-7.9 6.12-16.38 8.16-23.66 4.08-15.17 7.14-28.5 9.18-38.83 2.04-10.92 3.06-19.4 4.08-24.87 0-1.82 1.02-3.64 1.02-4.85H1200z" stroke="#000" stroke-opacity="0" stroke-width="1.09" fill-opacity=".12"/><path d="M181 846.67h1080.5M181.03 846.67H180" stroke="#5e5e5e" stroke-width="2" fill="none"/><path d="M1276.76 846.67l-14.26 4.63v-9.27z" stroke="#5e5e5e" stroke-width="2" fill="#5e5e5e"/><path d="M180 845.67V138.5M180 845.64v1.03" stroke="#5e5e5e" stroke-width="2" fill="none"/><path d="M180 123.24l4.64 14.26h-9.28z" stroke="#5e5e5e" stroke-width="2" fill="#5e5e5e"/><path d="M400 852.67c0-3.32 2.7-6 6-6h588c3.3 0 6 2.68 6 6V874c0 3.3-2.7 6-6 6H406c-3.3 0-6-2.7-6-6z" stroke="#000" stroke-opacity="0" stroke-width="3" fill="#fff" fill-opacity="0"/><use xlink:href="#a" transform="matrix(1,0,0,1,405,851.6666666666664) translate(107.90123456790127 19.27777777777778)"/><use xlink:href="#b" transform="matrix(1,0,0,1,405,851.6666666666664) translate(197.3456790123457 19.27777777777778)"/><use xlink:href="#c" transform="matrix(1,0,0,1,405,851.6666666666664) translate(209.6913580246914 19.27777777777778)"/><use xlink:href="#d" transform="matrix(1,0,0,1,405,851.6666666666664) translate(347.71604938271605 19.27777777777778)"/><path d="M146 800.43c-3.3 0-6-2.7-6-6V209.2c0-3.32 2.7-6 6-6h28c3.3 0 6 2.68 6 6v585.23c0 3.3-2.7 6-6 6z" stroke="#000" stroke-opacity="0" stroke-width="3" fill="#fff" fill-opacity="0"/><use xlink:href="#e" transform="matrix(6.123233995736766e-17,-1,1,6.123233995736766e-17,145.00000000000006,795.42749343832) translate(218.96913580246914 19.65277777777778)"/><use xlink:href="#f" transform="matrix(6.123233995736766e-17,-1,1,6.123233995736766e-17,145.00000000000006,795.42749343832) translate(280.2037037037037 19.65277777777778)"/><use xlink:href="#g" transform="matrix(6.123233995736766e-17,-1,1,6.123233995736766e-17,145.00000000000006,795.42749343832) translate(292.54938271604937 19.65277777777778)"/><path d="M342.86 752.77c2.84-1.7 7.83-3.1 11.14-3.1h162c13.25 0 24 12.98 24 29 0 16-10.75 29-24 29H354c-3.3 0-8.3-1.4-11.14-3.1l-37.72-22.8c-2.84-1.7-2.84-4.5 0-6.2z" stroke="#5e5e5e" stroke-width="3" fill="#f9d2de"/><use xlink:href="#h" transform="matrix(1,0,0,1,305,754.6666666666666) translate(57.171666666666674 28)"/><use xlink:href="#i" transform="matrix(1,0,0,1,305,754.6666666666666) translate(104.89388888888888 28)"/><path d="M582.86 673.77c2.84-1.7 7.83-3.1 11.14-3.1h162c13.25 0 24 12.98 24 29 0 16-10.75 29-24 29H594c-3.3 0-8.3-1.4-11.14-3.1l-37.72-22.8c-2.84-1.7-2.84-4.5 0-6.2z" stroke="#5e5e5e" stroke-width="3" fill="#f9d2de"/><use xlink:href="#j" transform="matrix(1,0,0,1,545,675.6666666666666) translate(65.69944444444445 28)"/><path d="M742.86 594.77c2.84-1.7 7.83-3.1 11.14-3.1h162c13.25 0 24 12.98 24 29 0 16-10.75 29-24 29H754c-3.3 0-8.3-1.4-11.14-3.1l-37.72-22.8c-2.84-1.7-2.84-4.5 0-6.2z" stroke="#5e5e5e" stroke-width="3" fill="#f9d2de"/><use xlink:href="#k" transform="matrix(1,0,0,1,705,596.6666666666666) translate(78.25500000000001 28)"/><path d="M802.86 515.77c2.84-1.7 7.83-3.1 11.14-3.1h162c13.25 0 24 12.98 24 29 0 16-10.75 29-24 29H814c-3.3 0-8.3-1.4-11.14-3.1l-37.72-22.8c-2.84-1.7-2.84-4.5 0-6.2z" stroke="#5e5e5e" stroke-width="3" fill="#c1e4f7"/><use xlink:href="#h" transform="matrix(1,0,0,1,765,517.6666666666666) translate(32.47722222222224 19)"/><use xlink:href="#l" transform="matrix(1,0,0,1,765,517.6666666666666) translate(80.19944444444445 19)"/><use xlink:href="#m" transform="matrix(1,0,0,1,765,517.6666666666666) translate(144.47722222222222 19)"/><use xlink:href="#n" transform="matrix(1,0,0,1,765,517.6666666666666) translate(163.3661111111111 19)"/><use xlink:href="#o" transform="matrix(1,0,0,1,765,517.6666666666666) translate(81.69944444444445 42.99999999999999)"/><path d="M842.86 436.77c2.84-1.7 7.83-3.1 11.14-3.1h162c13.25 0 24 12.98 24 29 0 16-10.75 29-24 29H854c-3.3 0-8.3-1.4-11.14-3.1l-37.72-22.8c-2.84-1.7-2.84-4.5 0-6.2z" stroke="#5e5e5e" stroke-width="3" fill="#c1e4f7"/><use xlink:href="#p" transform="matrix(1,0,0,1,805,438.66666666666663) translate(26.699444444444463 22)"/><use xlink:href="#m" transform="matrix(1,0,0,1,805,438.66666666666663) translate(117.6438888888889 22)"/><use xlink:href="#q" transform="matrix(1,0,0,1,805,438.66666666666663) translate(136.53277777777777 22)"/><use xlink:href="#r" transform="matrix(1,0,0,1,805,438.66666666666663) translate(81.67166666666668 45.99999999999999)"/><path d="M862.86 358.1c2.84-1.72 7.83-3.1 11.14-3.1h162c13.25 0 24 12.9 24 28.83 0 15.93-10.75 28.84-24 28.84H874c-3.3 0-8.3-1.4-11.14-3.1l-37.72-22.65c-2.84-1.7-2.84-4.47 0-6.18z" stroke="#5e5e5e" stroke-width="3" fill="#c7e8ac"/><use xlink:href="#s" transform="matrix(1,0,0,1,825,360) translate(43.755 28)"/><use xlink:href="#t" transform="matrix(1,0,0,1,825,360) translate(115.92166666666667 28)"/><path d="M882.86 279.42c2.84-1.7 7.83-3.1 11.14-3.1h162c13.25 0 24 12.92 24 28.85 0 15.92-10.75 28.83-24 28.83H894c-3.3 0-8.3-1.38-11.14-3.1l-37.72-22.64c-2.84-1.7-2.84-4.48 0-6.18z" stroke="#5e5e5e" stroke-width="3" fill="#c7e8ac"/><use xlink:href="#u" transform="matrix(1,0,0,1,845,281.33333333333337) translate(66.56055555555555 28)"/><path d="M220 186c0-3.3 2.7-6 6-6h228c3.3 0 6 2.7 6 6v48c0 3.3-2.7 6-6 6H226c-3.3 0-6-2.7-6-6z" stroke="#000" stroke-opacity="0" stroke-width="3" fill="#fff" fill-opacity="0"/><use xlink:href="#v" transform="matrix(1,0,0,1,225,185) translate(0 30.27777777777778)"/><path d="M220 255.44c0-3.32 2.7-6 6-6h388c3.3 0 6 2.68 6 6v91.33c0 3.3-2.7 6-6 6H226c-3.3 0-6-2.7-6-6z" stroke="#000" stroke-opacity="0" stroke-width="3" fill="#fff" fill-opacity="0"/><use xlink:href="#w" transform="matrix(1,0,0,1,225,254.4376640419948) translate(5.0555555555555545 12.444444444444443)"/><use xlink:href="#x" transform="matrix(1,0,0,1,225,254.4376640419948) translate(15.555555555555552 12.444444444444443)"/><use xlink:href="#y" transform="matrix(1,0,0,1,225,254.4376640419948) translate(82.01234567901234 12.444444444444443)"/><use xlink:href="#z" transform="matrix(1,0,0,1,225,254.4376640419948) translate(96.7037037037037 12.444444444444443)"/><use xlink:href="#A" transform="matrix(1,0,0,1,225,254.4376640419948) translate(167.52469135802465 12.444444444444443)"/><use xlink:href="#B" transform="matrix(1,0,0,1,225,254.4376640419948) translate(241.716049382716 12.444444444444443)"/><use xlink:href="#C" transform="matrix(1,0,0,1,225,254.4376640419948) translate(274.5123456790123 12.444444444444443)"/><use xlink:href="#D" transform="matrix(1,0,0,1,225,254.4376640419948) translate(314.2222222222222 12.444444444444443)"/><use xlink:href="#E" transform="matrix(1,0,0,1,225,254.4376640419948) translate(331.5061728395061 12.444444444444443)"/><use xlink:href="#w" transform="matrix(1,0,0,1,225,254.4376640419948) translate(5.0555555555555545 31.111111111111107)"/><use xlink:href="#F" transform="matrix(1,0,0,1,225,254.4376640419948) translate(15.555555555555552 31.111111111111107)"/><use xlink:href="#G" transform="matrix(1,0,0,1,225,254.4376640419948) translate(70.77777777777777 31.111111111111107)"/><use xlink:href="#H" transform="matrix(1,0,0,1,225,254.4376640419948) translate(136.41358024691357 31.111111111111107)"/><use xlink:href="#w" transform="matrix(1,0,0,1,225,254.4376640419948) translate(5.0555555555555545 49.77777777777777)"/><use xlink:href="#I" transform="matrix(1,0,0,1,225,254.4376640419948) translate(15.555555555555552 49.77777777777777)"/><use xlink:href="#J" transform="matrix(1,0,0,1,225,254.4376640419948) translate(83.78395061728394 49.77777777777777)"/><use xlink:href="#K" transform="matrix(1,0,0,1,225,254.4376640419948) translate(103.57407407407405 49.77777777777777)"/><path d="M220 206c0-3.3 2.7-6 6-6h228c3.3 0 6 2.7 6 6v48c0 3.3-2.7 6-6 6H226c-3.3 0-6-2.7-6-6z" stroke="#000" stroke-opacity="0" stroke-width="3" fill="#fff" fill-opacity="0"/><g><use xlink:href="#L" transform="matrix(1,0,0,1,225,205) translate(0 29.84722222222222)"/><use xlink:href="#M" transform="matrix(1,0,0,1,225,205) translate(46.37037037037037 29.84722222222222)"/><use xlink:href="#N" transform="matrix(1,0,0,1,225,205) translate(103.60493827160494 29.84722222222222)"/><use xlink:href="#O" transform="matrix(1,0,0,1,225,205) translate(131.20987654320987 29.84722222222222)"/></g><path d="M220 428.2c0-3.3 2.7-6 6-6h228c3.3 0 6 2.7 6 6v48c0 3.32-2.7 6-6 6H226c-3.3 0-6-2.68-6-6z" stroke="#000" stroke-opacity="0" stroke-width="3" fill="#fff" fill-opacity="0"/><g><use xlink:href="#P" transform="matrix(1,0,0,1,225,427.2086614173229) translate(0 30.27777777777778)"/></g><path d="M220 446c0-3.3 2.7-6 6-6h228c3.3 0 6 2.7 6 6v48c0 3.3-2.7 6-6 6H226c-3.3 0-6-2.7-6-6z" stroke="#000" stroke-opacity="0" stroke-width="3" fill="#fff" fill-opacity="0"/><g><use xlink:href="#L" transform="matrix(1,0,0,1,225,445) translate(0 29.84722222222222)"/><use xlink:href="#Q" transform="matrix(1,0,0,1,225,445) translate(46.37037037037037 29.84722222222222)"/><use xlink:href="#R" transform="matrix(1,0,0,1,225,445) translate(93.72839506172838 29.84722222222222)"/></g><path d="M220 587.42c0-3.32 2.7-6 6-6h228c3.3 0 6 2.68 6 6v48c0 3.3-2.7 6-6 6H226c-3.3 0-6-2.7-6-6z" stroke="#000" stroke-opacity="0" stroke-width="3" fill="#fff" fill-opacity="0"/><g><use xlink:href="#S" transform="matrix(1,0,0,1,225,586.4173228346456) translate(0 17.77777777777778)"/></g><path d="M220 611.3c0-3.32 2.7-6 6-6h228c3.3 0 6 2.68 6 6v18.74c0 3.32-2.7 6-6 6H226c-3.3 0-6-2.68-6-6z" stroke="#000" stroke-opacity="0" stroke-width="3" fill="#fff" fill-opacity="0"/><g><use xlink:href="#L" transform="matrix(1,0,0,1,225,610.2913385826771) translate(0 14.222222222222221)"/><use xlink:href="#T" transform="matrix(1,0,0,1,225,610.2913385826771) translate(46.37037037037037 14.222222222222221)"/></g><path d="M220 494.33c0-3.3 2.7-6 6-6h388c3.3 0 6 2.7 6 6v91.34c0 3.3-2.7 6-6 6H226c-3.3 0-6-2.7-6-6z" stroke="#000" stroke-opacity="0" stroke-width="3" fill="#fff" fill-opacity="0"/><g><use xlink:href="#w" transform="matrix(1,0,0,1,225,493.3333333333333) translate(5.0555555555555545 12.444444444444443)"/><use xlink:href="#U" transform="matrix(1,0,0,1,225,493.3333333333333) translate(15.555555555555552 12.444444444444443)"/><use xlink:href="#V" transform="matrix(1,0,0,1,225,493.3333333333333) translate(68.18518518518518 12.444444444444443)"/><use xlink:href="#W" transform="matrix(1,0,0,1,225,493.3333333333333) translate(112.21604938271602 12.444444444444443)"/><use xlink:href="#X" transform="matrix(1,0,0,1,225,493.3333333333333) translate(199.2839506172839 12.444444444444443)"/><use xlink:href="#Y" transform="matrix(1,0,0,1,225,493.3333333333333) translate(229.5308641975308 12.444444444444443)"/><use xlink:href="#w" transform="matrix(1,0,0,1,225,493.3333333333333) translate(5.0555555555555545 31.111111111111107)"/><use xlink:href="#Z" transform="matrix(1,0,0,1,225,493.3333333333333) translate(15.555555555555552 31.111111111111107)"/><use xlink:href="#aa" transform="matrix(1,0,0,1,225,493.3333333333333) translate(57.8148148148148 31.111111111111107)"/><use xlink:href="#ab" transform="matrix(1,0,0,1,225,493.3333333333333) translate(149.24691358024688 31.111111111111107)"/><use xlink:href="#ac" transform="matrix(1,0,0,1,225,493.3333333333333) translate(165.6234567901234 31.111111111111107)"/><use xlink:href="#ad" transform="matrix(1,0,0,1,225,493.3333333333333) translate(200.1913580246913 31.111111111111107)"/><use xlink:href="#ae" transform="matrix(1,0,0,1,225,493.3333333333333) translate(226.11728395061724 31.111111111111107)"/><use xlink:href="#af" transform="matrix(1,0,0,1,225,493.3333333333333) translate(276.1111111111111 31.111111111111107)"/><use xlink:href="#ag" transform="matrix(1,0,0,1,225,493.3333333333333) translate(341.7469135802469 31.111111111111107)"/><use xlink:href="#ah" transform="matrix(1,0,0,1,225,493.3333333333333) translate(15.555555555555552 49.77777777777777)"/><use xlink:href="#ai" transform="matrix(1,0,0,1,225,493.3333333333333) translate(87.1111111111111 49.77777777777777)"/></g><path d="M220 652.33c0-3.3 2.7-6 6-6h288c3.3 0 6 2.7 6 6v91.34c0 3.3-2.7 6-6 6H226c-3.3 0-6-2.7-6-6z" stroke="#000" stroke-opacity="0" stroke-width="3" fill="#fff" fill-opacity="0"/><g><use xlink:href="#w" transform="matrix(1,0,0,1,225,651.3333333333333) translate(5.0555555555555545 12.444444444444443)"/><use xlink:href="#aj" transform="matrix(1,0,0,1,225,651.3333333333333) translate(15.555555555555552 12.444444444444443)"/><use xlink:href="#X" transform="matrix(1,0,0,1,225,651.3333333333333) translate(82.87654320987653 12.444444444444443)"/><use xlink:href="#ak" transform="matrix(1,0,0,1,225,651.3333333333333) translate(113.12345679012344 12.444444444444443)"/><use xlink:href="#al" transform="matrix(1,0,0,1,225,651.3333333333333) translate(178.75925925925924 12.444444444444443)"/><use xlink:href="#am" transform="matrix(1,0,0,1,225,651.3333333333333) translate(248.58641975308637 12.444444444444443)"/><use xlink:href="#an" transform="matrix(1,0,0,1,225,651.3333333333333) translate(5.0555555555555545 31.111111111111107)"/><use xlink:href="#ao" transform="matrix(1,0,0,1,225,651.3333333333333) translate(15.555555555555552 31.111111111111107)"/><use xlink:href="#ap" transform="matrix(1,0,0,1,225,651.3333333333333) translate(82.01234567901234 31.111111111111107)"/><use xlink:href="#aq" transform="matrix(1,0,0,1,225,651.3333333333333) translate(142.46296296296293 31.111111111111107)"/><use xlink:href="#ar" transform="matrix(1,0,0,1,225,651.3333333333333) translate(177.8086419753086 31.111111111111107)"/><use xlink:href="#as" transform="matrix(1,0,0,1,225,651.3333333333333) translate(239.9444444444444 31.111111111111107)"/><use xlink:href="#at" transform="matrix(1,0,0,1,225,651.3333333333333) translate(15.555555555555552 49.77777777777777)"/><use xlink:href="#au" transform="matrix(1,0,0,1,225,651.3333333333333) translate(81.10493827160492 49.77777777777777)"/><use xlink:href="#av" transform="matrix(1,0,0,1,225,651.3333333333333) translate(98.38888888888887 49.77777777777777)"/></g><defs><path fill="#333" d="M30-248c118-7 216 8 213 122C240-48 200 0 122 0H30v-248zM63-27c89 8 146-16 146-99s-60-101-146-95v194" id="aw"/><path fill="#333" d="M24-231v-30h32v30H24zM24 0v-190h32V0H24" id="ax"/><path fill="#333" d="M101-234c-31-9-42 10-38 44h38v23H63V0H32v-167H5v-23h27c-7-52 17-82 69-68v24" id="ay"/><path fill="#333" d="M96-169c-40 0-48 33-48 73s9 75 48 75c24 0 41-14 43-38l32 2c-6 37-31 61-74 61-59 0-76-41-82-99-10-93 101-131 147-64 4 7 5 14 7 22l-32 3c-4-21-16-35-41-35" id="az"/><path fill="#333" d="M84 4C-5 8 30-112 23-190h32v120c0 31 7 50 39 49 72-2 45-101 50-169h31l1 190h-30c-1-10 1-25-2-33-11 22-28 36-60 37" id="aA"/><path fill="#333" d="M24 0v-261h32V0H24" id="aB"/><path fill="#333" d="M59-47c-2 24 18 29 38 22v24C64 9 27 4 27-40v-127H5v-23h24l9-43h21v43h35v23H59v120" id="aC"/><path fill="#333" d="M179-190L93 31C79 59 56 82 12 73V49c39 6 53-20 64-50L1-190h34L92-34l54-156h33" id="aD"/><g id="a"><use transform="matrix(0.06172839506172839,0,0,0.06172839506172839,0,0)" xlink:href="#aw"/><use transform="matrix(0.06172839506172839,0,0,0.06172839506172839,15.987654320987653,0)" xlink:href="#ax"/><use transform="matrix(0.06172839506172839,0,0,0.06172839506172839,20.864197530864196,0)" xlink:href="#ay"/><use transform="matrix(0.06172839506172839,0,0,0.06172839506172839,26.604938271604937,0)" xlink:href="#ay"/><use transform="matrix(0.06172839506172839,0,0,0.06172839506172839,32.77777777777778,0)" xlink:href="#ax"/><use transform="matrix(0.06172839506172839,0,0,0.06172839506172839,37.65432098765432,0)" xlink:href="#az"/><use transform="matrix(0.06172839506172839,0,0,0.06172839506172839,48.76543209876543,0)" xlink:href="#aA"/><use transform="matrix(0.06172839506172839,0,0,0.06172839506172839,61.11111111111111,0)" xlink:href="#aB"/><use transform="matrix(0.06172839506172839,0,0,0.06172839506172839,65.98765432098764,0)" xlink:href="#aC"/><use transform="matrix(0.06172839506172839,0,0,0.06172839506172839,72.16049382716048,0)" xlink:href="#aD"/></g><path fill="#333" d="M0 4l72-265h28L28 4H0" id="aE"/><use transform="matrix(0.06172839506172839,0,0,0.06172839506172839,0,0)" xlink:href="#aE" id="b"/><path fill="#333" d="M240 0l2-218c-23 76-54 145-80 218h-23L58-218 59 0H30v-248h44l77 211c21-75 51-140 76-211h43V0h-30" id="aF"/><path fill="#333" d="M141-36C126-15 110 5 73 4 37 3 15-17 15-53c-1-64 63-63 125-63 3-35-9-54-41-54-24 1-41 7-42 31l-33-3c5-37 33-52 76-52 45 0 72 20 72 64v82c-1 20 7 32 28 27v20c-31 9-61-2-59-35zM48-53c0 20 12 33 32 33 41-3 63-29 60-74-43 2-92-5-92 41" id="aG"/><path fill="#333" d="M106-169C34-169 62-67 57 0H25v-261h32l-1 103c12-21 28-36 61-36 89 0 53 116 60 194h-32v-121c2-32-8-49-39-48" id="aH"/><path fill="#333" d="M100-194c63 0 86 42 84 106H49c0 40 14 67 53 68 26 1 43-12 49-29l28 8c-11 28-37 45-77 45C44 4 14-33 15-96c1-61 26-98 85-98zm52 81c6-60-76-77-97-28-3 7-6 17-6 28h103" id="aI"/><path fill="#333" d="M210-169c-67 3-38 105-44 169h-31v-121c0-29-5-50-35-48C34-165 62-65 56 0H25l-1-190h30c1 10-1 24 2 32 10-44 99-50 107 0 11-21 27-35 58-36 85-2 47 119 55 194h-31v-121c0-29-5-49-35-48" id="aJ"/><g id="c"><use transform="matrix(0.06172839506172839,0,0,0.06172839506172839,0,0)" xlink:href="#aF"/><use transform="matrix(0.06172839506172839,0,0,0.06172839506172839,18.456790123456788,0)" xlink:href="#aG"/><use transform="matrix(0.06172839506172839,0,0,0.06172839506172839,30.80246913580247,0)" xlink:href="#aC"/><use transform="matrix(0.06172839506172839,0,0,0.06172839506172839,36.97530864197531,0)" xlink:href="#aH"/><use transform="matrix(0.06172839506172839,0,0,0.06172839506172839,49.32098765432099,0)" xlink:href="#aI"/><use transform="matrix(0.06172839506172839,0,0,0.06172839506172839,61.666666666666664,0)" xlink:href="#aJ"/><use transform="matrix(0.06172839506172839,0,0,0.06172839506172839,80.12345679012346,0)" xlink:href="#aG"/><use transform="matrix(0.06172839506172839,0,0,0.06172839506172839,92.46913580246914,0)" xlink:href="#aC"/><use transform="matrix(0.06172839506172839,0,0,0.06172839506172839,98.64197530864197,0)" xlink:href="#ax"/><use transform="matrix(0.06172839506172839,0,0,0.06172839506172839,103.51851851851852,0)" xlink:href="#az"/><use transform="matrix(0.06172839506172839,0,0,0.06172839506172839,114.62962962962963,0)" xlink:href="#aG"/><use transform="matrix(0.06172839506172839,0,0,0.06172839506172839,126.97530864197533,0)" xlink:href="#aB"/></g><path fill="#333" d="M135-143c-3-34-86-38-87 0 15 53 115 12 119 90S17 21 10-45l28-5c4 36 97 45 98 0-10-56-113-15-118-90-4-57 82-63 122-42 12 7 21 19 24 35" id="aK"/><path fill="#333" d="M100-194c62-1 85 37 85 99 1 63-27 99-86 99S16-35 15-95c0-66 28-99 85-99zM99-20c44 1 53-31 53-75 0-43-8-75-51-75s-53 32-53 75 10 74 51 75" id="aL"/><path fill="#333" d="M115-194c55 1 70 41 70 98S169 2 115 4C84 4 66-9 55-30l1 105H24l-1-265h31l2 30c10-21 28-34 59-34zm-8 174c40 0 45-34 45-75s-6-73-45-74c-42 0-51 32-51 76 0 43 10 73 51 73" id="aM"/><path fill="#333" d="M117-194c89-4 53 116 60 194h-32v-121c0-31-8-49-39-48C34-167 62-67 57 0H25l-1-190h30c1 10-1 24 2 32 11-22 29-35 61-36" id="aN"/><g id="d"><use transform="matrix(0.06172839506172839,0,0,0.06172839506172839,0,0)" xlink:href="#aK"/><use transform="matrix(0.06172839506172839,0,0,0.06172839506172839,11.11111111111111,0)" xlink:href="#aL"/><use transform="matrix(0.06172839506172839,0,0,0.06172839506172839,23.45679012345679,0)" xlink:href="#aM"/><use transform="matrix(0.06172839506172839,0,0,0.06172839506172839,35.80246913580247,0)" xlink:href="#aH"/><use transform="matrix(0.06172839506172839,0,0,0.06172839506172839,48.148148148148145,0)" xlink:href="#ax"/><use transform="matrix(0.06172839506172839,0,0,0.06172839506172839,53.02469135802469,0)" xlink:href="#aK"/><use transform="matrix(0.06172839506172839,0,0,0.06172839506172839,64.1358024691358,0)" xlink:href="#aC"/><use transform="matrix(0.06172839506172839,0,0,0.06172839506172839,70.30864197530863,0)" xlink:href="#ax"/><use transform="matrix(0.06172839506172839,0,0,0.06172839506172839,75.18518518518518,0)" xlink:href="#az"/><use transform="matrix(0.06172839506172839,0,0,0.06172839506172839,86.29629629629629,0)" xlink:href="#aG"/><use transform="matrix(0.06172839506172839,0,0,0.06172839506172839,98.64197530864197,0)" xlink:href="#aC"/><use transform="matrix(0.06172839506172839,0,0,0.06172839506172839,104.81481481481481,0)" xlink:href="#ax"/><use transform="matrix(0.06172839506172839,0,0,0.06172839506172839,109.69135802469135,0)" xlink:href="#aL"/><use transform="matrix(0.06172839506172839,0,0,0.06172839506172839,122.03703703703704,0)" xlink:href="#aN"/></g><path fill="#333" d="M137 0h-34L2-248h35l83 218 83-218h36" id="aO"/><g id="e"><use transform="matrix(0.06172839506172839,0,0,0.06172839506172839,0,0)" xlink:href="#aO"/><use transform="matrix(0.06172839506172839,0,0,0.06172839506172839,13.148148148148147,0)" xlink:href="#aG"/><use transform="matrix(0.06172839506172839,0,0,0.06172839506172839,25.493827160493826,0)" xlink:href="#aB"/><use transform="matrix(0.06172839506172839,0,0,0.06172839506172839,30.370370370370367,0)" xlink:href="#aA"/><use transform="matrix(0.06172839506172839,0,0,0.06172839506172839,42.716049382716044,0)" xlink:href="#aI"/></g><use transform="matrix(0.06172839506172839,0,0,0.06172839506172839,0,0)" xlink:href="#aE" id="f"/><path fill="#333" d="M33 0v-248h34V0H33" id="aP"/><path fill="#333" d="M177-190C167-65 218 103 67 71c-23-6-38-20-44-43l32-5c15 47 100 32 89-28v-30C133-14 115 1 83 1 29 1 15-40 15-95c0-56 16-97 71-98 29-1 48 16 59 35 1-10 0-23 2-32h30zM94-22c36 0 50-32 50-73 0-42-14-75-50-75-39 0-46 34-46 75s6 73 46 73" id="aQ"/><g id="g"><use transform="matrix(0.06172839506172839,0,0,0.06172839506172839,0,0)" xlink:href="#aP"/><use transform="matrix(0.06172839506172839,0,0,0.06172839506172839,6.172839506172839,0)" xlink:href="#aN"/><use transform="matrix(0.06172839506172839,0,0,0.06172839506172839,18.51851851851852,0)" xlink:href="#aK"/><use transform="matrix(0.06172839506172839,0,0,0.06172839506172839,29.62962962962963,0)" xlink:href="#ax"/><use transform="matrix(0.06172839506172839,0,0,0.06172839506172839,34.50617283950617,0)" xlink:href="#aQ"/><use transform="matrix(0.06172839506172839,0,0,0.06172839506172839,46.85185185185185,0)" xlink:href="#aH"/><use transform="matrix(0.06172839506172839,0,0,0.06172839506172839,59.197530864197525,0)" xlink:href="#aC"/><use transform="matrix(0.06172839506172839,0,0,0.06172839506172839,65.37037037037037,0)" xlink:href="#aK"/></g><g id="h"><use transform="matrix(0.055555555555555546,0,0,0.055555555555555546,0,0)" xlink:href="#aw"/><use transform="matrix(0.055555555555555546,0,0,0.055555555555555546,14.388888888888886,0)" xlink:href="#aG"/><use transform="matrix(0.055555555555555546,0,0,0.055555555555555546,25.499999999999993,0)" xlink:href="#aC"/><use transform="matrix(0.055555555555555546,0,0,0.055555555555555546,31.055555555555543,0)" xlink:href="#aG"/></g><path fill="#333" d="M85-194c31 0 48 13 60 33l-1-100h32l1 261h-30c-2-10 0-23-3-31C134-8 116 4 85 4 32 4 16-35 15-94c0-66 23-100 70-100zm9 24c-40 0-46 34-46 75 0 40 6 74 45 74 42 0 51-32 51-76 0-42-9-74-50-73" id="aR"/><g id="i"><use transform="matrix(0.055555555555555546,0,0,0.055555555555555546,0,0)" xlink:href="#aJ"/><use transform="matrix(0.055555555555555546,0,0,0.055555555555555546,16.611111111111107,0)" xlink:href="#aL"/><use transform="matrix(0.055555555555555546,0,0,0.055555555555555546,27.722222222222214,0)" xlink:href="#aR"/><use transform="matrix(0.055555555555555546,0,0,0.055555555555555546,38.83333333333332,0)" xlink:href="#aI"/><use transform="matrix(0.055555555555555546,0,0,0.055555555555555546,49.94444444444443,0)" xlink:href="#aB"/><use transform="matrix(0.055555555555555546,0,0,0.055555555555555546,54.333333333333314,0)" xlink:href="#ax"/><use transform="matrix(0.055555555555555546,0,0,0.055555555555555546,58.7222222222222,0)" xlink:href="#aN"/><use transform="matrix(0.055555555555555546,0,0,0.055555555555555546,69.83333333333331,0)" xlink:href="#aQ"/></g><path fill="#333" d="M9 0v-24l116-142H16v-24h144v24L44-24h123V0H9" id="aS"/><g id="j"><use transform="matrix(0.055555555555555546,0,0,0.055555555555555546,0,0)" xlink:href="#aO"/><use transform="matrix(0.055555555555555546,0,0,0.055555555555555546,12.944444444444441,0)" xlink:href="#ax"/><use transform="matrix(0.055555555555555546,0,0,0.055555555555555546,17.33333333333333,0)" xlink:href="#aK"/><use transform="matrix(0.055555555555555546,0,0,0.055555555555555546,27.33333333333333,0)" xlink:href="#aA"/><use transform="matrix(0.055555555555555546,0,0,0.055555555555555546,38.444444444444436,0)" xlink:href="#aG"/><use transform="matrix(0.055555555555555546,0,0,0.055555555555555546,49.55555555555554,0)" xlink:href="#aB"/><use transform="matrix(0.055555555555555546,0,0,0.055555555555555546,53.94444444444443,0)" xlink:href="#ax"/><use transform="matrix(0.055555555555555546,0,0,0.055555555555555546,58.33333333333331,0)" xlink:href="#aS"/><use transform="matrix(0.055555555555555546,0,0,0.055555555555555546,68.33333333333331,0)" xlink:href="#aG"/><use transform="matrix(0.055555555555555546,0,0,0.055555555555555546,79.44444444444443,0)" xlink:href="#aC"/><use transform="matrix(0.055555555555555546,0,0,0.055555555555555546,84.99999999999999,0)" xlink:href="#ax"/><use transform="matrix(0.055555555555555546,0,0,0.055555555555555546,89.38888888888887,0)" xlink:href="#aL"/><use transform="matrix(0.055555555555555546,0,0,0.055555555555555546,100.49999999999999,0)" xlink:href="#aN"/></g><path fill="#333" d="M233-177c-1 41-23 64-60 70L243 0h-38l-65-103H63V0H30v-248c88 3 205-21 203 71zM63-129c60-2 137 13 137-47 0-61-80-42-137-45v92" id="aT"/><path fill="#333" d="M114-163C36-179 61-72 57 0H25l-1-190h30c1 12-1 29 2 39 6-27 23-49 58-41v29" id="aU"/><g id="k"><use transform="matrix(0.055555555555555546,0,0,0.055555555555555546,0,0)" xlink:href="#aT"/><use transform="matrix(0.055555555555555546,0,0,0.055555555555555546,14.388888888888886,0)" xlink:href="#aI"/><use transform="matrix(0.055555555555555546,0,0,0.055555555555555546,25.499999999999993,0)" xlink:href="#aM"/><use transform="matrix(0.055555555555555546,0,0,0.055555555555555546,36.6111111111111,0)" xlink:href="#aL"/><use transform="matrix(0.055555555555555546,0,0,0.055555555555555546,47.72222222222221,0)" xlink:href="#aU"/><use transform="matrix(0.055555555555555546,0,0,0.055555555555555546,54.333333333333314,0)" xlink:href="#aC"/><use transform="matrix(0.055555555555555546,0,0,0.055555555555555546,59.888888888888864,0)" xlink:href="#ax"/><use transform="matrix(0.055555555555555546,0,0,0.055555555555555546,64.27777777777776,0)" xlink:href="#aN"/><use transform="matrix(0.055555555555555546,0,0,0.055555555555555546,75.38888888888887,0)" xlink:href="#aQ"/></g><g id="l"><use transform="matrix(0.055555555555555546,0,0,0.055555555555555546,0,0)" xlink:href="#aJ"/><use transform="matrix(0.055555555555555546,0,0,0.055555555555555546,16.611111111111107,0)" xlink:href="#ax"/><use transform="matrix(0.055555555555555546,0,0,0.055555555555555546,20.999999999999996,0)" xlink:href="#aN"/><use transform="matrix(0.055555555555555546,0,0,0.055555555555555546,32.11111111111111,0)" xlink:href="#ax"/><use transform="matrix(0.055555555555555546,0,0,0.055555555555555546,36.49999999999999,0)" xlink:href="#aN"/><use transform="matrix(0.055555555555555546,0,0,0.055555555555555546,47.6111111111111,0)" xlink:href="#aQ"/></g><path fill="#333" d="M234-2c-28 10-62 0-77-18C117 19 8 12 13-65c3-43 29-61 60-76-25-40-17-114 47-108 35 3 59 15 59 50 0 44-40 53-71 69 14 26 32 50 51 72 14-21 24-43 30-72l26 8c-9 33-21 57-38 82 13 13 33 22 57 15v23zM97-151c25-10 52-18 56-48-1-18-13-29-33-29-42 0-39 50-23 77zM42-66c-3 51 71 58 98 28-20-24-41-51-56-80-23 10-40 24-42 52" id="aV"/><use transform="matrix(0.055555555555555546,0,0,0.055555555555555546,0,0)" xlink:href="#aV" id="m"/><g id="n"><use transform="matrix(0.055555555555555546,0,0,0.055555555555555546,0,0)" xlink:href="#aM"/><use transform="matrix(0.055555555555555546,0,0,0.055555555555555546,11.111111111111109,0)" xlink:href="#aG"/><use transform="matrix(0.055555555555555546,0,0,0.055555555555555546,22.222222222222218,0)" xlink:href="#aC"/><use transform="matrix(0.055555555555555546,0,0,0.055555555555555546,27.77777777777777,0)" xlink:href="#aC"/><use transform="matrix(0.055555555555555546,0,0,0.055555555555555546,33.33333333333333,0)" xlink:href="#aI"/><use transform="matrix(0.055555555555555546,0,0,0.055555555555555546,44.444444444444436,0)" xlink:href="#aU"/><use transform="matrix(0.055555555555555546,0,0,0.055555555555555546,51.05555555555554,0)" xlink:href="#aN"/></g><g id="o"><use transform="matrix(0.055555555555555546,0,0,0.055555555555555546,0,0)" xlink:href="#aU"/><use transform="matrix(0.055555555555555546,0,0,0.055555555555555546,6.61111111111111,0)" xlink:href="#aI"/><use transform="matrix(0.055555555555555546,0,0,0.055555555555555546,17.722222222222218,0)" xlink:href="#az"/><use transform="matrix(0.055555555555555546,0,0,0.055555555555555546,27.722222222222214,0)" xlink:href="#aL"/><use transform="matrix(0.055555555555555546,0,0,0.055555555555555546,38.83333333333332,0)" xlink:href="#aQ"/><use transform="matrix(0.055555555555555546,0,0,0.055555555555555546,49.94444444444443,0)" xlink:href="#aN"/><use transform="matrix(0.055555555555555546,0,0,0.055555555555555546,61.05555555555553,0)" xlink:href="#ax"/><use transform="matrix(0.055555555555555546,0,0,0.055555555555555546,65.44444444444443,0)" xlink:href="#aC"/><use transform="matrix(0.055555555555555546,0,0,0.055555555555555546,70.99999999999999,0)" xlink:href="#ax"/><use transform="matrix(0.055555555555555546,0,0,0.055555555555555546,75.38888888888887,0)" xlink:href="#aL"/><use transform="matrix(0.055555555555555546,0,0,0.055555555555555546,86.49999999999999,0)" xlink:href="#aN"/></g><path fill="#333" d="M185-189c-5-48-123-54-124 2 14 75 158 14 163 119 3 78-121 87-175 55-17-10-28-26-33-46l33-7c5 56 141 63 141-1 0-78-155-14-162-118-5-82 145-84 179-34 5 7 8 16 11 25" id="aW"/><g id="p"><use transform="matrix(0.055555555555555546,0,0,0.055555555555555546,0,0)" xlink:href="#aW"/><use transform="matrix(0.055555555555555546,0,0,0.055555555555555546,13.33333333333333,0)" xlink:href="#aC"/><use transform="matrix(0.055555555555555546,0,0,0.055555555555555546,18.888888888888886,0)" xlink:href="#aG"/><use transform="matrix(0.055555555555555546,0,0,0.055555555555555546,29.999999999999993,0)" xlink:href="#aC"/><use transform="matrix(0.055555555555555546,0,0,0.055555555555555546,35.55555555555555,0)" xlink:href="#ax"/><use transform="matrix(0.055555555555555546,0,0,0.055555555555555546,39.944444444444436,0)" xlink:href="#aK"/><use transform="matrix(0.055555555555555546,0,0,0.055555555555555546,49.944444444444436,0)" xlink:href="#aC"/><use transform="matrix(0.055555555555555546,0,0,0.055555555555555546,55.49999999999999,0)" xlink:href="#ax"/><use transform="matrix(0.055555555555555546,0,0,0.055555555555555546,59.88888888888888,0)" xlink:href="#az"/><use transform="matrix(0.055555555555555546,0,0,0.055555555555555546,69.88888888888887,0)" xlink:href="#aG"/><use transform="matrix(0.055555555555555546,0,0,0.055555555555555546,80.99999999999999,0)" xlink:href="#aB"/></g><g id="q"><use transform="matrix(0.055555555555555546,0,0,0.055555555555555546,0,0)" xlink:href="#aK"/><use transform="matrix(0.055555555555555546,0,0,0.055555555555555546,9.999999999999998,0)" xlink:href="#ax"/><use transform="matrix(0.055555555555555546,0,0,0.055555555555555546,14.388888888888886,0)" xlink:href="#aJ"/><use transform="matrix(0.055555555555555546,0,0,0.055555555555555546,30.999999999999993,0)" xlink:href="#aA"/><use transform="matrix(0.055555555555555546,0,0,0.055555555555555546,42.1111111111111,0)" xlink:href="#aB"/><use transform="matrix(0.055555555555555546,0,0,0.055555555555555546,46.499999999999986,0)" xlink:href="#aG"/><use transform="matrix(0.055555555555555546,0,0,0.055555555555555546,57.611111111111086,0)" xlink:href="#aC"/><use transform="matrix(0.055555555555555546,0,0,0.055555555555555546,63.16666666666666,0)" xlink:href="#ax"/><use transform="matrix(0.055555555555555546,0,0,0.055555555555555546,67.55555555555554,0)" xlink:href="#aL"/><use transform="matrix(0.055555555555555546,0,0,0.055555555555555546,78.66666666666666,0)" xlink:href="#aN"/></g><g id="r"><use transform="matrix(0.055555555555555546,0,0,0.055555555555555546,0,0)" xlink:href="#ay"/><use transform="matrix(0.055555555555555546,0,0,0.055555555555555546,5.5555555555555545,0)" xlink:href="#aL"/><use transform="matrix(0.055555555555555546,0,0,0.055555555555555546,16.666666666666664,0)" xlink:href="#aU"/><use transform="matrix(0.055555555555555546,0,0,0.055555555555555546,23.277777777777775,0)" xlink:href="#aI"/><use transform="matrix(0.055555555555555546,0,0,0.055555555555555546,34.388888888888886,0)" xlink:href="#az"/><use transform="matrix(0.055555555555555546,0,0,0.055555555555555546,44.388888888888886,0)" xlink:href="#aG"/><use transform="matrix(0.055555555555555546,0,0,0.055555555555555546,55.49999999999999,0)" xlink:href="#aK"/><use transform="matrix(0.055555555555555546,0,0,0.055555555555555546,65.49999999999999,0)" xlink:href="#aC"/><use transform="matrix(0.055555555555555546,0,0,0.055555555555555546,71.05555555555554,0)" xlink:href="#ax"/><use transform="matrix(0.055555555555555546,0,0,0.055555555555555546,75.44444444444443,0)" xlink:href="#aN"/><use transform="matrix(0.055555555555555546,0,0,0.055555555555555546,86.55555555555554,0)" xlink:href="#aQ"/></g><g id="s"><use transform="matrix(0.055555555555555546,0,0,0.055555555555555546,0,0)" xlink:href="#aW"/><use transform="matrix(0.055555555555555546,0,0,0.055555555555555546,13.33333333333333,0)" xlink:href="#aD"/><use transform="matrix(0.055555555555555546,0,0,0.055555555555555546,23.33333333333333,0)" xlink:href="#aK"/><use transform="matrix(0.055555555555555546,0,0,0.055555555555555546,33.33333333333333,0)" xlink:href="#aC"/><use transform="matrix(0.055555555555555546,0,0,0.055555555555555546,38.888888888888886,0)" xlink:href="#aI"/><use transform="matrix(0.055555555555555546,0,0,0.055555555555555546,49.99999999999999,0)" xlink:href="#aJ"/></g><g id="t"><use transform="matrix(0.055555555555555546,0,0,0.055555555555555546,0,0)" xlink:href="#aR"/><use transform="matrix(0.055555555555555546,0,0,0.055555555555555546,11.111111111111109,0)" xlink:href="#aD"/><use transform="matrix(0.055555555555555546,0,0,0.055555555555555546,21.111111111111107,0)" xlink:href="#aN"/><use transform="matrix(0.055555555555555546,0,0,0.055555555555555546,32.222222222222214,0)" xlink:href="#aG"/><use transform="matrix(0.055555555555555546,0,0,0.055555555555555546,43.33333333333332,0)" xlink:href="#aJ"/><use transform="matrix(0.055555555555555546,0,0,0.055555555555555546,59.944444444444436,0)" xlink:href="#ax"/><use transform="matrix(0.055555555555555546,0,0,0.055555555555555546,64.33333333333331,0)" xlink:href="#az"/><use transform="matrix(0.055555555555555546,0,0,0.055555555555555546,74.33333333333331,0)" xlink:href="#aK"/></g><path fill="#333" d="M140-251c81 0 123 46 123 126C263-46 219 4 140 4 59 4 17-45 17-125s42-126 123-126zm0 227c63 0 89-41 89-101s-29-99-89-99c-61 0-89 39-89 99S79-25 140-24" id="aX"/><g id="u"><use transform="matrix(0.055555555555555546,0,0,0.055555555555555546,0,0)" xlink:href="#aX"/><use transform="matrix(0.055555555555555546,0,0,0.055555555555555546,15.555555555555554,0)" xlink:href="#aM"/><use transform="matrix(0.055555555555555546,0,0,0.055555555555555546,26.666666666666664,0)" xlink:href="#aC"/><use transform="matrix(0.055555555555555546,0,0,0.055555555555555546,32.22222222222222,0)" xlink:href="#ax"/><use transform="matrix(0.055555555555555546,0,0,0.055555555555555546,36.61111111111111,0)" xlink:href="#aJ"/><use transform="matrix(0.055555555555555546,0,0,0.055555555555555546,53.222222222222214,0)" xlink:href="#ax"/><use transform="matrix(0.055555555555555546,0,0,0.055555555555555546,57.6111111111111,0)" xlink:href="#aS"/><use transform="matrix(0.055555555555555546,0,0,0.055555555555555546,67.6111111111111,0)" xlink:href="#aG"/><use transform="matrix(0.055555555555555546,0,0,0.055555555555555546,78.72222222222221,0)" xlink:href="#aC"/><use transform="matrix(0.055555555555555546,0,0,0.055555555555555546,84.27777777777777,0)" xlink:href="#ax"/><use transform="matrix(0.055555555555555546,0,0,0.055555555555555546,88.66666666666666,0)" xlink:href="#aL"/><use transform="matrix(0.055555555555555546,0,0,0.055555555555555546,99.77777777777777,0)" xlink:href="#aN"/></g><path fill="#333" d="M24-248c93 1 206-16 204 79-1 75-69 88-152 82V0H24v-248zm52 121c47 0 100 7 100-41 0-47-54-39-100-39v80" id="aY"/><path fill="#333" d="M135-150c-39-12-60 13-60 57V0H25l-1-190h47c2 13-1 29 3 40 6-28 27-53 61-41v41" id="aZ"/><path fill="#333" d="M185-48c-13 30-37 53-82 52C43 2 14-33 14-96s30-98 90-98c62 0 83 45 84 108H66c0 31 8 55 39 56 18 0 30-7 34-22zm-45-69c5-46-57-63-70-21-2 6-4 13-4 21h74" id="ba"/><path fill="#333" d="M137-138c1-29-70-34-71-4 15 46 118 7 119 86 1 83-164 76-172 9l43-7c4 19 20 25 44 25 33 8 57-30 24-41C81-84 22-81 20-136c-2-80 154-74 161-7" id="bb"/><path fill="#333" d="M190-63c-7 42-38 67-86 67-59 0-84-38-90-98-12-110 154-137 174-36l-49 2c-2-19-15-32-35-32-30 0-35 28-38 64-6 74 65 87 74 30" id="bc"/><path fill="#333" d="M25-224v-37h50v37H25zM25 0v-190h50V0H25" id="bd"/><path fill="#333" d="M135-194c53 0 70 44 70 98 0 56-19 98-73 100-31 1-45-17-59-34 3 33 2 69 2 105H25l-1-265h48c2 10 0 23 3 31 11-24 29-35 60-35zM114-30c33 0 39-31 40-66 0-38-9-64-40-64-56 0-55 130 0 130" id="be"/><path fill="#333" d="M115-3C79 11 28 4 28-45v-112H4v-33h27l15-45h31v45h36v33H77v99c-1 23 16 31 38 25v30" id="bf"/><path fill="#333" d="M128 0H69L1-190h53L99-40l48-150h52" id="bg"/><g id="v"><use transform="matrix(0.06172839506172839,0,0,0.06172839506172839,0,0)" xlink:href="#aY"/><use transform="matrix(0.06172839506172839,0,0,0.06172839506172839,14.814814814814813,0)" xlink:href="#aZ"/><use transform="matrix(0.06172839506172839,0,0,0.06172839506172839,23.456790123456788,0)" xlink:href="#ba"/><use transform="matrix(0.06172839506172839,0,0,0.06172839506172839,35.80246913580247,0)" xlink:href="#bb"/><use transform="matrix(0.06172839506172839,0,0,0.06172839506172839,48.148148148148145,0)" xlink:href="#bc"/><use transform="matrix(0.06172839506172839,0,0,0.06172839506172839,60.49382716049382,0)" xlink:href="#aZ"/><use transform="matrix(0.06172839506172839,0,0,0.06172839506172839,69.1358024691358,0)" xlink:href="#bd"/><use transform="matrix(0.06172839506172839,0,0,0.06172839506172839,75.30864197530863,0)" xlink:href="#be"/><use transform="matrix(0.06172839506172839,0,0,0.06172839506172839,88.82716049382715,0)" xlink:href="#bf"/><use transform="matrix(0.06172839506172839,0,0,0.06172839506172839,96.17283950617283,0)" xlink:href="#bd"/><use transform="matrix(0.06172839506172839,0,0,0.06172839506172839,102.34567901234567,0)" xlink:href="#bg"/><use transform="matrix(0.06172839506172839,0,0,0.06172839506172839,114.69135802469135,0)" xlink:href="#ba"/></g><path fill="#333" d="M62-168c30 0 50 19 50 48S92-70 62-70c-29 0-48-21-48-50s20-48 48-48" id="bh"/><use transform="matrix(0.04320987654320987,0,0,0.04320987654320987,0,0)" xlink:href="#bh" id="w"/><g id="x"><use transform="matrix(0.04320987654320987,0,0,0.04320987654320987,0,0)" xlink:href="#aP"/><use transform="matrix(0.04320987654320987,0,0,0.04320987654320987,4.320987654320986,0)" xlink:href="#aR"/><use transform="matrix(0.04320987654320987,0,0,0.04320987654320987,12.962962962962958,0)" xlink:href="#aI"/><use transform="matrix(0.04320987654320987,0,0,0.04320987654320987,21.60493827160493,0)" xlink:href="#aN"/><use transform="matrix(0.04320987654320987,0,0,0.04320987654320987,30.2469135802469,0)" xlink:href="#aC"/><use transform="matrix(0.04320987654320987,0,0,0.04320987654320987,34.56790123456789,0)" xlink:href="#ax"/><use transform="matrix(0.04320987654320987,0,0,0.04320987654320987,37.981481481481474,0)" xlink:href="#ay"/><use transform="matrix(0.04320987654320987,0,0,0.04320987654320987,42.30246913580246,0)" xlink:href="#ax"/><use transform="matrix(0.04320987654320987,0,0,0.04320987654320987,45.71604938271604,0)" xlink:href="#aI"/><use transform="matrix(0.04320987654320987,0,0,0.04320987654320987,54.358024691358025,0)" xlink:href="#aK"/></g><use transform="matrix(0.04320987654320987,0,0,0.04320987654320987,0,0)" xlink:href="#aV" id="y"/><path fill="#333" d="M108 0H70L1-190h34L89-25l56-165h34" id="bi"/><g id="z"><use transform="matrix(0.04320987654320987,0,0,0.04320987654320987,0,0)" xlink:href="#aI"/><use transform="matrix(0.04320987654320987,0,0,0.04320987654320987,8.641975308641973,0)" xlink:href="#bi"/><use transform="matrix(0.04320987654320987,0,0,0.04320987654320987,16.41975308641975,0)" xlink:href="#aG"/><use transform="matrix(0.04320987654320987,0,0,0.04320987654320987,25.061728395061724,0)" xlink:href="#aB"/><use transform="matrix(0.04320987654320987,0,0,0.04320987654320987,28.475308641975296,0)" xlink:href="#aA"/><use transform="matrix(0.04320987654320987,0,0,0.04320987654320987,37.11728395061727,0)" xlink:href="#aG"/><use transform="matrix(0.04320987654320987,0,0,0.04320987654320987,45.75925925925925,0)" xlink:href="#aC"/><use transform="matrix(0.04320987654320987,0,0,0.04320987654320987,50.08024691358023,0)" xlink:href="#aI"/><use transform="matrix(0.04320987654320987,0,0,0.04320987654320987,58.72222222222221,0)" xlink:href="#aK"/></g><g id="A"><use transform="matrix(0.04320987654320987,0,0,0.04320987654320987,0,0)" xlink:href="#aM"/><use transform="matrix(0.04320987654320987,0,0,0.04320987654320987,8.641975308641973,0)" xlink:href="#aL"/><use transform="matrix(0.04320987654320987,0,0,0.04320987654320987,17.283950617283946,0)" xlink:href="#aC"/><use transform="matrix(0.04320987654320987,0,0,0.04320987654320987,21.604938271604933,0)" xlink:href="#aI"/><use transform="matrix(0.04320987654320987,0,0,0.04320987654320987,30.2469135802469,0)" xlink:href="#aN"/><use transform="matrix(0.04320987654320987,0,0,0.04320987654320987,38.88888888888888,0)" xlink:href="#aC"/><use transform="matrix(0.04320987654320987,0,0,0.04320987654320987,43.209876543209866,0)" xlink:href="#ax"/><use transform="matrix(0.04320987654320987,0,0,0.04320987654320987,46.62345679012345,0)" xlink:href="#aG"/><use transform="matrix(0.04320987654320987,0,0,0.04320987654320987,55.26543209876542,0)" xlink:href="#aB"/><use transform="matrix(0.04320987654320987,0,0,0.04320987654320987,58.67901234567901,0)" xlink:href="#aB"/><use transform="matrix(0.04320987654320987,0,0,0.04320987654320987,62.09259259259259,0)" xlink:href="#aD"/></g><path fill="#333" d="M67-158c22-48 132-52 116 29L158 0h-32l25-140c3-38-53-32-70-12C52-117 51-52 38 0H6l36-190h30" id="bj"/><path fill="#333" d="M111-194c62-3 86 47 72 106H45c-7 38 6 69 45 68 27-1 43-14 53-32l24 11C152-15 129 4 87 4 38 3 12-23 12-71c0-70 32-119 99-123zm44 81c14-66-71-72-95-28-4 8-8 17-11 28h106" id="bk"/><path fill="#333" d="M188 0h-37l-8-164L71 0H34L18-190h31l8 164 75-164h34l8 164 74-164h31" id="bl"/><g id="B"><use transform="matrix(0.04320987654320987,0,0,0.04320987654320987,0,0)" xlink:href="#bj"/><use transform="matrix(0.04320987654320987,0,0,0.04320987654320987,8.641975308641973,0)" xlink:href="#bk"/><use transform="matrix(0.04320987654320987,0,0,0.04320987654320987,17.283950617283946,0)" xlink:href="#bl"/></g><path fill="#333" d="M206 0h-36l-40-164L89 0H53L-1-190h32L70-26l43-164h34l41 164 42-164h31" id="bm"/><g id="C"><use transform="matrix(0.04320987654320987,0,0,0.04320987654320987,0,0)" xlink:href="#bm"/><use transform="matrix(0.04320987654320987,0,0,0.04320987654320987,11.191358024691356,0)" xlink:href="#aG"/><use transform="matrix(0.04320987654320987,0,0,0.04320987654320987,19.83333333333333,0)" xlink:href="#aD"/><use transform="matrix(0.04320987654320987,0,0,0.04320987654320987,27.611111111111104,0)" xlink:href="#aK"/></g><g id="D"><use transform="matrix(0.04320987654320987,0,0,0.04320987654320987,0,0)" xlink:href="#aC"/><use transform="matrix(0.04320987654320987,0,0,0.04320987654320987,4.320987654320986,0)" xlink:href="#aL"/></g><g id="E"><use transform="matrix(0.04320987654320987,0,0,0.04320987654320987,0,0)" xlink:href="#aL"/><use transform="matrix(0.04320987654320987,0,0,0.04320987654320987,8.641975308641973,0)" xlink:href="#aM"/><use transform="matrix(0.04320987654320987,0,0,0.04320987654320987,17.283950617283946,0)" xlink:href="#aI"/><use transform="matrix(0.04320987654320987,0,0,0.04320987654320987,25.925925925925917,0)" xlink:href="#aU"/><use transform="matrix(0.04320987654320987,0,0,0.04320987654320987,31.06790123456789,0)" xlink:href="#aG"/><use transform="matrix(0.04320987654320987,0,0,0.04320987654320987,39.709876543209866,0)" xlink:href="#aC"/><use transform="matrix(0.04320987654320987,0,0,0.04320987654320987,44.03086419753085,0)" xlink:href="#aI"/></g><path fill="#333" d="M127-220V0H93v-220H8v-28h204v28h-85" id="bn"/><g id="F"><use transform="matrix(0.04320987654320987,0,0,0.04320987654320987,0,0)" xlink:href="#bn"/><use transform="matrix(0.04320987654320987,0,0,0.04320987654320987,7.734567901234565,0)" xlink:href="#aG"/><use transform="matrix(0.04320987654320987,0,0,0.04320987654320987,16.376543209876537,0)" xlink:href="#aU"/><use transform="matrix(0.04320987654320987,0,0,0.04320987654320987,21.518518518518512,0)" xlink:href="#aQ"/><use transform="matrix(0.04320987654320987,0,0,0.04320987654320987,30.160493827160487,0)" xlink:href="#aI"/><use transform="matrix(0.04320987654320987,0,0,0.04320987654320987,38.80246913580246,0)" xlink:href="#aC"/><use transform="matrix(0.04320987654320987,0,0,0.04320987654320987,43.12345679012345,0)" xlink:href="#aK"/></g><path fill="#333" d="M115-194c53 0 69 39 70 98 0 66-23 100-70 100C84 3 66-7 56-30L54 0H23l1-261h32v101c10-23 28-34 59-34zm-8 174c40 0 45-34 45-75 0-40-5-75-45-74-42 0-51 32-51 76 0 43 10 73 51 73" id="bo"/><g id="G"><use transform="matrix(0.04320987654320987,0,0,0.04320987654320987,0,0)" xlink:href="#bo"/><use transform="matrix(0.04320987654320987,0,0,0.04320987654320987,8.641975308641973,0)" xlink:href="#aA"/><use transform="matrix(0.04320987654320987,0,0,0.04320987654320987,17.283950617283946,0)" xlink:href="#aK"/><use transform="matrix(0.04320987654320987,0,0,0.04320987654320987,25.061728395061724,0)" xlink:href="#ax"/><use transform="matrix(0.04320987654320987,0,0,0.04320987654320987,28.475308641975296,0)" xlink:href="#aN"/><use transform="matrix(0.04320987654320987,0,0,0.04320987654320987,37.11728395061727,0)" xlink:href="#aI"/><use transform="matrix(0.04320987654320987,0,0,0.04320987654320987,45.75925925925925,0)" xlink:href="#aK"/><use transform="matrix(0.04320987654320987,0,0,0.04320987654320987,53.537037037037024,0)" xlink:href="#aK"/></g><path fill="#333" d="M24-231v-30h32v30H24zM-9 49c24 4 33-6 33-30v-209h32V24c2 40-23 58-65 49V49" id="bp"/><g id="H"><use transform="matrix(0.04320987654320987,0,0,0.04320987654320987,0,0)" xlink:href="#aL"/><use transform="matrix(0.04320987654320987,0,0,0.04320987654320987,8.641975308641973,0)" xlink:href="#bo"/><use transform="matrix(0.04320987654320987,0,0,0.04320987654320987,17.283950617283946,0)" xlink:href="#bp"/><use transform="matrix(0.04320987654320987,0,0,0.04320987654320987,20.697530864197525,0)" xlink:href="#aI"/><use transform="matrix(0.04320987654320987,0,0,0.04320987654320987,29.3395061728395,0)" xlink:href="#az"/><use transform="matrix(0.04320987654320987,0,0,0.04320987654320987,37.11728395061728,0)" xlink:href="#aC"/><use transform="matrix(0.04320987654320987,0,0,0.04320987654320987,41.438271604938265,0)" xlink:href="#ax"/><use transform="matrix(0.04320987654320987,0,0,0.04320987654320987,44.851851851851855,0)" xlink:href="#bi"/><use transform="matrix(0.04320987654320987,0,0,0.04320987654320987,52.629629629629626,0)" xlink:href="#aI"/><use transform="matrix(0.04320987654320987,0,0,0.04320987654320987,61.2716049382716,0)" xlink:href="#aK"/></g><path fill="#333" d="M160-131c35 5 61 23 61 61C221 17 115-2 30 0v-248c76 3 177-17 177 60 0 33-19 50-47 57zm-97-11c50-1 110 9 110-42 0-47-63-36-110-37v79zm0 115c55-2 124 14 124-45 0-56-70-42-124-44v89" id="bq"/><g id="I"><use transform="matrix(0.04320987654320987,0,0,0.04320987654320987,0,0)" xlink:href="#bq"/><use transform="matrix(0.04320987654320987,0,0,0.04320987654320987,10.370370370370368,0)" xlink:href="#aG"/><use transform="matrix(0.04320987654320987,0,0,0.04320987654320987,19.01234567901234,0)" xlink:href="#aB"/><use transform="matrix(0.04320987654320987,0,0,0.04320987654320987,22.42592592592592,0)" xlink:href="#aG"/><use transform="matrix(0.04320987654320987,0,0,0.04320987654320987,31.06790123456789,0)" xlink:href="#aN"/><use transform="matrix(0.04320987654320987,0,0,0.04320987654320987,39.709876543209866,0)" xlink:href="#az"/><use transform="matrix(0.04320987654320987,0,0,0.04320987654320987,47.487654320987644,0)" xlink:href="#aI"/><use transform="matrix(0.04320987654320987,0,0,0.04320987654320987,56.12962962962962,0)" xlink:href="#aK"/></g><g id="J"><use transform="matrix(0.04320987654320987,0,0,0.04320987654320987,0,0)" xlink:href="#aG"/><use transform="matrix(0.04320987654320987,0,0,0.04320987654320987,8.641975308641973,0)" xlink:href="#aB"/><use transform="matrix(0.04320987654320987,0,0,0.04320987654320987,12.055555555555554,0)" xlink:href="#aB"/></g><g id="K"><use transform="matrix(0.04320987654320987,0,0,0.04320987654320987,0,0)" xlink:href="#az"/><use transform="matrix(0.04320987654320987,0,0,0.04320987654320987,7.777777777777776,0)" xlink:href="#aL"/><use transform="matrix(0.04320987654320987,0,0,0.04320987654320987,16.41975308641975,0)" xlink:href="#aN"/><use transform="matrix(0.04320987654320987,0,0,0.04320987654320987,25.061728395061724,0)" xlink:href="#aK"/><use transform="matrix(0.04320987654320987,0,0,0.04320987654320987,32.8395061728395,0)" xlink:href="#aC"/><use transform="matrix(0.04320987654320987,0,0,0.04320987654320987,37.16049382716049,0)" xlink:href="#aU"/><use transform="matrix(0.04320987654320987,0,0,0.04320987654320987,42.30246913580246,0)" xlink:href="#aG"/><use transform="matrix(0.04320987654320987,0,0,0.04320987654320987,50.944444444444436,0)" xlink:href="#ax"/><use transform="matrix(0.04320987654320987,0,0,0.04320987654320987,54.358024691358025,0)" xlink:href="#aN"/><use transform="matrix(0.04320987654320987,0,0,0.04320987654320987,62.99999999999999,0)" xlink:href="#aC"/><use transform="matrix(0.04320987654320987,0,0,0.04320987654320987,67.32098765432097,0)" xlink:href="#aK"/></g><path fill="#333" d="M266 0h-40l-56-210L115 0H75L2-248h35L96-30l15-64 43-154h32l59 218 59-218h35" id="br"/><g id="L"><use transform="matrix(0.049382716049382706,0,0,0.049382716049382706,0,0)" xlink:href="#br"/><use transform="matrix(0.049382716049382706,0,0,0.049382716049382706,16.740740740740737,0)" xlink:href="#aH"/><use transform="matrix(0.049382716049382706,0,0,0.049382716049382706,26.617283950617278,0)" xlink:href="#aG"/><use transform="matrix(0.049382716049382706,0,0,0.049382716049382706,36.49382716049382,0)" xlink:href="#aC"/></g><g id="M"><use transform="matrix(0.049382716049382706,0,0,0.049382716049382706,0,0)" xlink:href="#aK"/><use transform="matrix(0.049382716049382706,0,0,0.049382716049382706,8.888888888888888,0)" xlink:href="#aH"/><use transform="matrix(0.049382716049382706,0,0,0.049382716049382706,18.76543209876543,0)" xlink:href="#aL"/><use transform="matrix(0.049382716049382706,0,0,0.049382716049382706,28.64197530864197,0)" xlink:href="#aA"/><use transform="matrix(0.049382716049382706,0,0,0.049382716049382706,38.51851851851851,0)" xlink:href="#aB"/><use transform="matrix(0.049382716049382706,0,0,0.049382716049382706,42.419753086419746,0)" xlink:href="#aR"/></g><g id="N"><use transform="matrix(0.049382716049382706,0,0,0.049382716049382706,0,0)" xlink:href="#bm"/><use transform="matrix(0.049382716049382706,0,0,0.049382716049382706,12.790123456790122,0)" xlink:href="#aI"/></g><path fill="#333" d="M103-251c84 0 111 97 45 133-19 10-37 24-39 52H78c0-63 77-55 77-114 0-30-21-42-52-43-32 0-53 17-56 46l-32-2c7-45 34-72 88-72zM77 0v-35h34V0H77" id="bs"/><g id="O"><use transform="matrix(0.049382716049382706,0,0,0.049382716049382706,0,0)" xlink:href="#aR"/><use transform="matrix(0.049382716049382706,0,0,0.049382716049382706,9.87654320987654,0)" xlink:href="#aL"/><use transform="matrix(0.049382716049382706,0,0,0.049382716049382706,19.75308641975308,0)" xlink:href="#bs"/></g><path fill="#333" d="M88-194c31-1 46 15 58 34l-1-101h50l1 261h-48c-2-10 0-23-3-31C134-8 116 4 84 4 32 4 16-41 15-95c0-56 19-97 73-99zm17 164c33 0 40-30 41-66 1-37-9-64-41-64s-38 30-39 65c0 43 13 65 39 65" id="bt"/><g id="P"><use transform="matrix(0.06172839506172839,0,0,0.06172839506172839,0,0)" xlink:href="#aY"/><use transform="matrix(0.06172839506172839,0,0,0.06172839506172839,14.814814814814813,0)" xlink:href="#aZ"/><use transform="matrix(0.06172839506172839,0,0,0.06172839506172839,23.456790123456788,0)" xlink:href="#ba"/><use transform="matrix(0.06172839506172839,0,0,0.06172839506172839,35.80246913580247,0)" xlink:href="#bt"/><use transform="matrix(0.06172839506172839,0,0,0.06172839506172839,49.32098765432099,0)" xlink:href="#bd"/><use transform="matrix(0.06172839506172839,0,0,0.06172839506172839,55.49382716049383,0)" xlink:href="#bc"/><use transform="matrix(0.06172839506172839,0,0,0.06172839506172839,67.8395061728395,0)" xlink:href="#bf"/><use transform="matrix(0.06172839506172839,0,0,0.06172839506172839,75.18518518518519,0)" xlink:href="#bd"/><use transform="matrix(0.06172839506172839,0,0,0.06172839506172839,81.35802469135803,0)" xlink:href="#bg"/><use transform="matrix(0.06172839506172839,0,0,0.06172839506172839,93.70370370370371,0)" xlink:href="#ba"/></g><g id="Q"><use transform="matrix(0.049382716049382706,0,0,0.049382716049382706,0,0)" xlink:href="#az"/><use transform="matrix(0.049382716049382706,0,0,0.049382716049382706,8.888888888888888,0)" xlink:href="#aL"/><use transform="matrix(0.049382716049382706,0,0,0.049382716049382706,18.76543209876543,0)" xlink:href="#aA"/><use transform="matrix(0.049382716049382706,0,0,0.049382716049382706,28.64197530864197,0)" xlink:href="#aB"/><use transform="matrix(0.049382716049382706,0,0,0.049382716049382706,32.5432098765432,0)" xlink:href="#aR"/></g><g id="R"><use transform="matrix(0.049382716049382706,0,0,0.049382716049382706,0,0)" xlink:href="#aH"/><use transform="matrix(0.049382716049382706,0,0,0.049382716049382706,9.87654320987654,0)" xlink:href="#aG"/><use transform="matrix(0.049382716049382706,0,0,0.049382716049382706,19.75308641975308,0)" xlink:href="#aM"/><use transform="matrix(0.049382716049382706,0,0,0.049382716049382706,29.629629629629623,0)" xlink:href="#aM"/><use transform="matrix(0.049382716049382706,0,0,0.049382716049382706,39.50617283950616,0)" xlink:href="#aI"/><use transform="matrix(0.049382716049382706,0,0,0.049382716049382706,49.38271604938271,0)" xlink:href="#aN"/><use transform="matrix(0.049382716049382706,0,0,0.049382716049382706,59.259259259259245,0)" xlink:href="#bs"/></g><path fill="#333" d="M24-248c120-7 223 5 221 122C244-46 201 0 124 0H24v-248zM76-40c74 7 117-18 117-86 0-67-45-88-117-82v168" id="bu"/><g id="S"><use transform="matrix(0.06172839506172839,0,0,0.06172839506172839,0,0)" xlink:href="#bu"/><use transform="matrix(0.06172839506172839,0,0,0.06172839506172839,15.987654320987653,0)" xlink:href="#ba"/><use transform="matrix(0.06172839506172839,0,0,0.06172839506172839,28.333333333333332,0)" xlink:href="#bb"/><use transform="matrix(0.06172839506172839,0,0,0.06172839506172839,40.67901234567901,0)" xlink:href="#bc"/><use transform="matrix(0.06172839506172839,0,0,0.06172839506172839,53.02469135802469,0)" xlink:href="#aZ"/><use transform="matrix(0.06172839506172839,0,0,0.06172839506172839,61.666666666666664,0)" xlink:href="#bd"/><use transform="matrix(0.06172839506172839,0,0,0.06172839506172839,67.8395061728395,0)" xlink:href="#be"/><use transform="matrix(0.06172839506172839,0,0,0.06172839506172839,81.35802469135803,0)" xlink:href="#bf"/><use transform="matrix(0.06172839506172839,0,0,0.06172839506172839,88.70370370370371,0)" xlink:href="#bd"/><use transform="matrix(0.06172839506172839,0,0,0.06172839506172839,94.87654320987654,0)" xlink:href="#bg"/><use transform="matrix(0.06172839506172839,0,0,0.06172839506172839,107.22222222222223,0)" xlink:href="#ba"/></g><g id="T"><use transform="matrix(0.049382716049382706,0,0,0.049382716049382706,0,0)" xlink:href="#aH"/><use transform="matrix(0.049382716049382706,0,0,0.049382716049382706,9.87654320987654,0)" xlink:href="#aG"/><use transform="matrix(0.049382716049382706,0,0,0.049382716049382706,19.75308641975308,0)" xlink:href="#aM"/><use transform="matrix(0.049382716049382706,0,0,0.049382716049382706,29.629629629629623,0)" xlink:href="#aM"/><use transform="matrix(0.049382716049382706,0,0,0.049382716049382706,39.50617283950616,0)" xlink:href="#aI"/><use transform="matrix(0.049382716049382706,0,0,0.049382716049382706,49.38271604938271,0)" xlink:href="#aN"/><use transform="matrix(0.049382716049382706,0,0,0.049382716049382706,59.259259259259245,0)" xlink:href="#aI"/><use transform="matrix(0.049382716049382706,0,0,0.049382716049382706,69.1358024691358,0)" xlink:href="#aR"/><use transform="matrix(0.049382716049382706,0,0,0.049382716049382706,79.01234567901234,0)" xlink:href="#bs"/></g><path fill="#333" d="M30-248c87 1 191-15 191 75 0 78-77 80-158 76V0H30v-248zm33 125c57 0 124 11 124-50 0-59-68-47-124-48v98" id="bv"/><g id="U"><use transform="matrix(0.04320987654320987,0,0,0.04320987654320987,0,0)" xlink:href="#bv"/><use transform="matrix(0.04320987654320987,0,0,0.04320987654320987,10.370370370370368,0)" xlink:href="#aU"/><use transform="matrix(0.04320987654320987,0,0,0.04320987654320987,15.512345679012343,0)" xlink:href="#aI"/><use transform="matrix(0.04320987654320987,0,0,0.04320987654320987,24.154320987654316,0)" xlink:href="#aR"/><use transform="matrix(0.04320987654320987,0,0,0.04320987654320987,32.79629629629629,0)" xlink:href="#ax"/><use transform="matrix(0.04320987654320987,0,0,0.04320987654320987,36.20987654320987,0)" xlink:href="#az"/><use transform="matrix(0.04320987654320987,0,0,0.04320987654320987,43.98765432098765,0)" xlink:href="#aC"/></g><path fill="#333" d="M76-167L44 0H12l33-167H18l4-23h27c3-47 25-81 82-69l-4 24c-35-8-44 15-46 45h37l-5 23H76" id="bw"/><path fill="#333" d="M67 3c-93-2-31-127-26-193h32L48-50c-3 39 53 32 70 12 30-34 30-101 43-152h32L157 0h-30c1-10 6-24 4-33-14 20-29 37-64 36" id="bx"/><path fill="#333" d="M51-54c-9 22 5 41 31 30L79-1C43 14 10-4 19-52l22-115H19l5-23h22l19-43h21l-9 43h35l-4 23H73" id="by"/><path fill="#333" d="M66-151c12-25 30-51 66-40l-6 26C45-176 58-65 38 0H6l36-190h30" id="bz"/><g id="V"><use transform="matrix(0.04320987654320987,0,0,0.04320987654320987,0,0)" xlink:href="#bw"/><use transform="matrix(0.04320987654320987,0,0,0.04320987654320987,4.320987654320986,0)" xlink:href="#bx"/><use transform="matrix(0.04320987654320987,0,0,0.04320987654320987,12.962962962962958,0)" xlink:href="#by"/><use transform="matrix(0.04320987654320987,0,0,0.04320987654320987,17.283950617283946,0)" xlink:href="#bx"/><use transform="matrix(0.04320987654320987,0,0,0.04320987654320987,25.925925925925917,0)" xlink:href="#bz"/><use transform="matrix(0.04320987654320987,0,0,0.04320987654320987,31.06790123456789,0)" xlink:href="#bk"/></g><g id="W"><use transform="matrix(0.04320987654320987,0,0,0.04320987654320987,0,0)" xlink:href="#aM"/><use transform="matrix(0.04320987654320987,0,0,0.04320987654320987,8.641975308641973,0)" xlink:href="#aU"/><use transform="matrix(0.04320987654320987,0,0,0.04320987654320987,13.783950617283947,0)" xlink:href="#aL"/><use transform="matrix(0.04320987654320987,0,0,0.04320987654320987,22.42592592592592,0)" xlink:href="#bo"/><use transform="matrix(0.04320987654320987,0,0,0.04320987654320987,31.06790123456789,0)" xlink:href="#aG"/><use transform="matrix(0.04320987654320987,0,0,0.04320987654320987,39.709876543209866,0)" xlink:href="#bo"/><use transform="matrix(0.04320987654320987,0,0,0.04320987654320987,48.35185185185184,0)" xlink:href="#ax"/><use transform="matrix(0.04320987654320987,0,0,0.04320987654320987,51.76543209876542,0)" xlink:href="#aB"/><use transform="matrix(0.04320987654320987,0,0,0.04320987654320987,55.17901234567901,0)" xlink:href="#ax"/><use transform="matrix(0.04320987654320987,0,0,0.04320987654320987,58.59259259259259,0)" xlink:href="#aC"/><use transform="matrix(0.04320987654320987,0,0,0.04320987654320987,62.913580246913575,0)" xlink:href="#ax"/><use transform="matrix(0.04320987654320987,0,0,0.04320987654320987,66.32716049382715,0)" xlink:href="#aI"/><use transform="matrix(0.04320987654320987,0,0,0.04320987654320987,74.96913580246913,0)" xlink:href="#aK"/></g><g id="X"><use transform="matrix(0.04320987654320987,0,0,0.04320987654320987,0,0)" xlink:href="#aG"/><use transform="matrix(0.04320987654320987,0,0,0.04320987654320987,8.641975308641973,0)" xlink:href="#aN"/><use transform="matrix(0.04320987654320987,0,0,0.04320987654320987,17.283950617283946,0)" xlink:href="#aR"/></g><g id="Y"><use transform="matrix(0.04320987654320987,0,0,0.04320987654320987,0,0)" xlink:href="#aC"/><use transform="matrix(0.04320987654320987,0,0,0.04320987654320987,4.320987654320986,0)" xlink:href="#aU"/><use transform="matrix(0.04320987654320987,0,0,0.04320987654320987,9.462962962962962,0)" xlink:href="#aI"/><use transform="matrix(0.04320987654320987,0,0,0.04320987654320987,18.104938271604937,0)" xlink:href="#aN"/><use transform="matrix(0.04320987654320987,0,0,0.04320987654320987,26.74691358024691,0)" xlink:href="#aR"/><use transform="matrix(0.04320987654320987,0,0,0.04320987654320987,35.388888888888886,0)" xlink:href="#aK"/></g><path fill="#333" d="M63-220v92h138v28H63V0H30v-248h175v28H63" id="bA"/><g id="Z"><use transform="matrix(0.04320987654320987,0,0,0.04320987654320987,0,0)" xlink:href="#bA"/><use transform="matrix(0.04320987654320987,0,0,0.04320987654320987,9.46296296296296,0)" xlink:href="#ax"/><use transform="matrix(0.04320987654320987,0,0,0.04320987654320987,12.876543209876537,0)" xlink:href="#aN"/><use transform="matrix(0.04320987654320987,0,0,0.04320987654320987,21.518518518518512,0)" xlink:href="#aR"/><use transform="matrix(0.04320987654320987,0,0,0.04320987654320987,30.160493827160487,0)" xlink:href="#aK"/></g><g id="aa"><use transform="matrix(0.04320987654320987,0,0,0.04320987654320987,0,0)" xlink:href="#aU"/><use transform="matrix(0.04320987654320987,0,0,0.04320987654320987,5.141975308641975,0)" xlink:href="#aI"/><use transform="matrix(0.04320987654320987,0,0,0.04320987654320987,13.783950617283947,0)" xlink:href="#aB"/><use transform="matrix(0.04320987654320987,0,0,0.04320987654320987,17.197530864197528,0)" xlink:href="#aG"/><use transform="matrix(0.04320987654320987,0,0,0.04320987654320987,25.8395061728395,0)" xlink:href="#aC"/><use transform="matrix(0.04320987654320987,0,0,0.04320987654320987,30.160493827160487,0)" xlink:href="#ax"/><use transform="matrix(0.04320987654320987,0,0,0.04320987654320987,33.57407407407407,0)" xlink:href="#aL"/><use transform="matrix(0.04320987654320987,0,0,0.04320987654320987,42.216049382716044,0)" xlink:href="#aN"/><use transform="matrix(0.04320987654320987,0,0,0.04320987654320987,50.85802469135801,0)" xlink:href="#aK"/><use transform="matrix(0.04320987654320987,0,0,0.04320987654320987,58.6358024691358,0)" xlink:href="#aH"/><use transform="matrix(0.04320987654320987,0,0,0.04320987654320987,67.27777777777777,0)" xlink:href="#ax"/><use transform="matrix(0.04320987654320987,0,0,0.04320987654320987,70.69135802469135,0)" xlink:href="#aM"/><use transform="matrix(0.04320987654320987,0,0,0.04320987654320987,79.33333333333333,0)" xlink:href="#aK"/></g><g id="ab"><use transform="matrix(0.04320987654320987,0,0,0.04320987654320987,0,0)" xlink:href="#ax"/><use transform="matrix(0.04320987654320987,0,0,0.04320987654320987,3.4135802469135794,0)" xlink:href="#aN"/></g><g id="ac"><use transform="matrix(0.04320987654320987,0,0,0.04320987654320987,0,0)" xlink:href="#aR"/><use transform="matrix(0.04320987654320987,0,0,0.04320987654320987,8.641975308641973,0)" xlink:href="#aG"/><use transform="matrix(0.04320987654320987,0,0,0.04320987654320987,17.283950617283946,0)" xlink:href="#aC"/><use transform="matrix(0.04320987654320987,0,0,0.04320987654320987,21.604938271604933,0)" xlink:href="#aG"/></g><g id="ad"><use transform="matrix(0.04320987654320987,0,0,0.04320987654320987,0,0)" xlink:href="#aN"/><use transform="matrix(0.04320987654320987,0,0,0.04320987654320987,8.641975308641973,0)" xlink:href="#aL"/><use transform="matrix(0.04320987654320987,0,0,0.04320987654320987,17.283950617283946,0)" xlink:href="#aC"/></g><g id="ae"><use transform="matrix(0.04320987654320987,0,0,0.04320987654320987,0,0)" xlink:href="#aU"/><use transform="matrix(0.04320987654320987,0,0,0.04320987654320987,5.141975308641975,0)" xlink:href="#aI"/><use transform="matrix(0.04320987654320987,0,0,0.04320987654320987,13.783950617283947,0)" xlink:href="#aG"/><use transform="matrix(0.04320987654320987,0,0,0.04320987654320987,22.42592592592592,0)" xlink:href="#aR"/><use transform="matrix(0.04320987654320987,0,0,0.04320987654320987,31.06790123456789,0)" xlink:href="#ax"/><use transform="matrix(0.04320987654320987,0,0,0.04320987654320987,34.481481481481474,0)" xlink:href="#aB"/><use transform="matrix(0.04320987654320987,0,0,0.04320987654320987,37.895061728395056,0)" xlink:href="#aD"/></g><g id="af"><use transform="matrix(0.04320987654320987,0,0,0.04320987654320987,0,0)" xlink:href="#aG"/><use transform="matrix(0.04320987654320987,0,0,0.04320987654320987,8.641975308641973,0)" xlink:href="#aM"/><use transform="matrix(0.04320987654320987,0,0,0.04320987654320987,17.283950617283946,0)" xlink:href="#aM"/><use transform="matrix(0.04320987654320987,0,0,0.04320987654320987,25.925925925925917,0)" xlink:href="#aG"/><use transform="matrix(0.04320987654320987,0,0,0.04320987654320987,34.56790123456789,0)" xlink:href="#aU"/><use transform="matrix(0.04320987654320987,0,0,0.04320987654320987,39.709876543209866,0)" xlink:href="#aI"/><use transform="matrix(0.04320987654320987,0,0,0.04320987654320987,48.35185185185184,0)" xlink:href="#aN"/><use transform="matrix(0.04320987654320987,0,0,0.04320987654320987,56.993827160493815,0)" xlink:href="#aC"/></g><g id="ag"><use transform="matrix(0.04320987654320987,0,0,0.04320987654320987,0,0)" xlink:href="#bm"/><use transform="matrix(0.04320987654320987,0,0,0.04320987654320987,11.191358024691356,0)" xlink:href="#ax"/><use transform="matrix(0.04320987654320987,0,0,0.04320987654320987,14.604938271604935,0)" xlink:href="#aC"/><use transform="matrix(0.04320987654320987,0,0,0.04320987654320987,18.92592592592592,0)" xlink:href="#aH"/></g><g id="ah"><use transform="matrix(0.04320987654320987,0,0,0.04320987654320987,0,0)" xlink:href="#aC"/><use transform="matrix(0.04320987654320987,0,0,0.04320987654320987,4.320987654320986,0)" xlink:href="#aU"/><use transform="matrix(0.04320987654320987,0,0,0.04320987654320987,9.462962962962962,0)" xlink:href="#aG"/><use transform="matrix(0.04320987654320987,0,0,0.04320987654320987,18.104938271604937,0)" xlink:href="#aR"/><use transform="matrix(0.04320987654320987,0,0,0.04320987654320987,26.74691358024691,0)" xlink:href="#ax"/><use transform="matrix(0.04320987654320987,0,0,0.04320987654320987,30.160493827160494,0)" xlink:href="#aC"/><use transform="matrix(0.04320987654320987,0,0,0.04320987654320987,34.481481481481474,0)" xlink:href="#ax"/><use transform="matrix(0.04320987654320987,0,0,0.04320987654320987,37.895061728395056,0)" xlink:href="#aL"/><use transform="matrix(0.04320987654320987,0,0,0.04320987654320987,46.537037037037024,0)" xlink:href="#aN"/><use transform="matrix(0.04320987654320987,0,0,0.04320987654320987,55.17901234567901,0)" xlink:href="#aG"/><use transform="matrix(0.04320987654320987,0,0,0.04320987654320987,63.82098765432098,0)" xlink:href="#aB"/></g><g id="ai"><use transform="matrix(0.04320987654320987,0,0,0.04320987654320987,0,0)" xlink:href="#aG"/><use transform="matrix(0.04320987654320987,0,0,0.04320987654320987,8.641975308641973,0)" xlink:href="#aN"/><use transform="matrix(0.04320987654320987,0,0,0.04320987654320987,17.283950617283946,0)" xlink:href="#aG"/><use transform="matrix(0.04320987654320987,0,0,0.04320987654320987,25.925925925925917,0)" xlink:href="#aB"/><use transform="matrix(0.04320987654320987,0,0,0.04320987654320987,29.339506172839496,0)" xlink:href="#aD"/><use transform="matrix(0.04320987654320987,0,0,0.04320987654320987,37.11728395061727,0)" xlink:href="#aK"/><use transform="matrix(0.04320987654320987,0,0,0.04320987654320987,44.89506172839505,0)" xlink:href="#ax"/><use transform="matrix(0.04320987654320987,0,0,0.04320987654320987,48.30864197530863,0)" xlink:href="#aK"/></g><g id="aj"><use transform="matrix(0.04320987654320987,0,0,0.04320987654320987,0,0)" xlink:href="#bv"/><use transform="matrix(0.04320987654320987,0,0,0.04320987654320987,10.370370370370368,0)" xlink:href="#aU"/><use transform="matrix(0.04320987654320987,0,0,0.04320987654320987,15.512345679012343,0)" xlink:href="#aI"/><use transform="matrix(0.04320987654320987,0,0,0.04320987654320987,24.154320987654316,0)" xlink:href="#aM"/><use transform="matrix(0.04320987654320987,0,0,0.04320987654320987,32.79629629629629,0)" xlink:href="#aG"/><use transform="matrix(0.04320987654320987,0,0,0.04320987654320987,41.438271604938265,0)" xlink:href="#aU"/><use transform="matrix(0.04320987654320987,0,0,0.04320987654320987,46.58024691358024,0)" xlink:href="#aI"/><use transform="matrix(0.04320987654320987,0,0,0.04320987654320987,55.22222222222221,0)" xlink:href="#aK"/></g><g id="ak"><use transform="matrix(0.04320987654320987,0,0,0.04320987654320987,0,0)" xlink:href="#aG"/><use transform="matrix(0.04320987654320987,0,0,0.04320987654320987,8.641975308641973,0)" xlink:href="#aN"/><use transform="matrix(0.04320987654320987,0,0,0.04320987654320987,17.283950617283946,0)" xlink:href="#aG"/><use transform="matrix(0.04320987654320987,0,0,0.04320987654320987,25.925925925925917,0)" xlink:href="#aB"/><use transform="matrix(0.04320987654320987,0,0,0.04320987654320987,29.339506172839496,0)" xlink:href="#aD"/><use transform="matrix(0.04320987654320987,0,0,0.04320987654320987,37.11728395061727,0)" xlink:href="#aS"/><use transform="matrix(0.04320987654320987,0,0,0.04320987654320987,44.89506172839505,0)" xlink:href="#aI"/><use transform="matrix(0.04320987654320987,0,0,0.04320987654320987,53.537037037037024,0)" xlink:href="#aK"/></g><path fill="#333" d="M67-158c15-20 31-36 64-36 94 0 33 127 27 194h-32l25-140c3-38-53-32-70-12C52-117 51-51 37 0H6l51-261h31" id="bB"/><path fill="#333" d="M50-231l6-30h32l-6 30H50zM6 0l37-190h31L37 0H6" id="bC"/><path fill="#333" d="M55-144c13 50 104 24 104 88C159 21 15 23 1-39l26-10c6 40 102 42 102-4-13-50-104-23-104-87 0-71 143-71 148-8l-29 4c-5-35-85-37-89 0" id="bD"/><path fill="#333" d="M30-147c31-64 166-65 159 27C183-49 158 1 86 4 9 8 1-88 30-147zM88-20c53 0 68-48 68-100 0-31-11-51-44-50-52 1-68 46-68 97 0 32 13 53 44 53" id="bE"/><path fill="#333" d="M44-68c0 29 11 47 38 47 30 0 42-19 51-41l28 9C148-21 126 4 82 4 31 4 10-29 12-85c3-77 74-140 146-93 12 8 15 23 18 40l-31 5c-1-22-13-36-36-36-52 0-65 49-65 101" id="bF"/><path fill="#333" d="M165-48c-4 18 1 34 23 27l-3 20c-29 8-62 0-52-35h-2C116-14 99 4 63 4 30 4 8-16 8-49c0-68 71-67 138-67 10-26 0-56-31-54-26 1-42 9-47 31l-32-5c8-67 160-71 144 15-5 28-9 54-15 81zM42-50c3 52 80 24 89-6 7-12 7-24 11-38-47 1-103-4-100 44" id="bG"/><path fill="#333" d="M6 0l50-261h32L37 0H6" id="bH"/><g id="al"><use transform="matrix(0.04320987654320987,0,0,0.04320987654320987,0,0)" xlink:href="#bB"/><use transform="matrix(0.04320987654320987,0,0,0.04320987654320987,8.641975308641973,0)" xlink:href="#bC"/><use transform="matrix(0.04320987654320987,0,0,0.04320987654320987,12.055555555555554,0)" xlink:href="#bD"/><use transform="matrix(0.04320987654320987,0,0,0.04320987654320987,19.83333333333333,0)" xlink:href="#by"/><use transform="matrix(0.04320987654320987,0,0,0.04320987654320987,24.154320987654316,0)" xlink:href="#bE"/><use transform="matrix(0.04320987654320987,0,0,0.04320987654320987,32.79629629629629,0)" xlink:href="#bz"/><use transform="matrix(0.04320987654320987,0,0,0.04320987654320987,37.938271604938265,0)" xlink:href="#bC"/><use transform="matrix(0.04320987654320987,0,0,0.04320987654320987,41.35185185185185,0)" xlink:href="#bF"/><use transform="matrix(0.04320987654320987,0,0,0.04320987654320987,49.129629629629626,0)" xlink:href="#bG"/><use transform="matrix(0.04320987654320987,0,0,0.04320987654320987,57.7716049382716,0)" xlink:href="#bH"/></g><g id="am"><use transform="matrix(0.04320987654320987,0,0,0.04320987654320987,0,0)" xlink:href="#aR"/><use transform="matrix(0.04320987654320987,0,0,0.04320987654320987,8.641975308641973,0)" xlink:href="#aG"/><use transform="matrix(0.04320987654320987,0,0,0.04320987654320987,17.283950617283946,0)" xlink:href="#aC"/><use transform="matrix(0.04320987654320987,0,0,0.04320987654320987,21.604938271604933,0)" xlink:href="#aG"/></g><use transform="matrix(0.04320987654320987,0,0,0.04320987654320987,0,0)" xlink:href="#bh" id="an"/><g id="ao"><use transform="matrix(0.04320987654320987,0,0,0.04320987654320987,0,0)" xlink:href="#aP"/><use transform="matrix(0.04320987654320987,0,0,0.04320987654320987,4.320987654320986,0)" xlink:href="#aR"/><use transform="matrix(0.04320987654320987,0,0,0.04320987654320987,12.962962962962958,0)" xlink:href="#aI"/><use transform="matrix(0.04320987654320987,0,0,0.04320987654320987,21.60493827160493,0)" xlink:href="#aN"/><use transform="matrix(0.04320987654320987,0,0,0.04320987654320987,30.2469135802469,0)" xlink:href="#aC"/><use transform="matrix(0.04320987654320987,0,0,0.04320987654320987,34.56790123456789,0)" xlink:href="#ax"/><use transform="matrix(0.04320987654320987,0,0,0.04320987654320987,37.981481481481474,0)" xlink:href="#ay"/><use transform="matrix(0.04320987654320987,0,0,0.04320987654320987,42.30246913580246,0)" xlink:href="#ax"/><use transform="matrix(0.04320987654320987,0,0,0.04320987654320987,45.71604938271604,0)" xlink:href="#aI"/><use transform="matrix(0.04320987654320987,0,0,0.04320987654320987,54.358024691358025,0)" xlink:href="#aK"/></g><g id="ap"><use transform="matrix(0.04320987654320987,0,0,0.04320987654320987,0,0)" xlink:href="#aM"/><use transform="matrix(0.04320987654320987,0,0,0.04320987654320987,8.641975308641973,0)" xlink:href="#aG"/><use transform="matrix(0.04320987654320987,0,0,0.04320987654320987,17.283950617283946,0)" xlink:href="#aC"/><use transform="matrix(0.04320987654320987,0,0,0.04320987654320987,21.604938271604933,0)" xlink:href="#aC"/><use transform="matrix(0.04320987654320987,0,0,0.04320987654320987,25.92592592592592,0)" xlink:href="#aI"/><use transform="matrix(0.04320987654320987,0,0,0.04320987654320987,34.56790123456789,0)" xlink:href="#aU"/><use transform="matrix(0.04320987654320987,0,0,0.04320987654320987,39.709876543209866,0)" xlink:href="#aN"/><use transform="matrix(0.04320987654320987,0,0,0.04320987654320987,48.35185185185184,0)" xlink:href="#aK"/></g><g id="aq"><use transform="matrix(0.04320987654320987,0,0,0.04320987654320987,0,0)" xlink:href="#ay"/><use transform="matrix(0.04320987654320987,0,0,0.04320987654320987,4.320987654320986,0)" xlink:href="#aU"/><use transform="matrix(0.04320987654320987,0,0,0.04320987654320987,9.462962962962962,0)" xlink:href="#aL"/><use transform="matrix(0.04320987654320987,0,0,0.04320987654320987,18.104938271604937,0)" xlink:href="#aJ"/></g><g id="ar"><use transform="matrix(0.04320987654320987,0,0,0.04320987654320987,0,0)" xlink:href="#aK"/><use transform="matrix(0.04320987654320987,0,0,0.04320987654320987,7.777777777777776,0)" xlink:href="#aG"/><use transform="matrix(0.04320987654320987,0,0,0.04320987654320987,16.41975308641975,0)" xlink:href="#aJ"/><use transform="matrix(0.04320987654320987,0,0,0.04320987654320987,29.3395061728395,0)" xlink:href="#aM"/><use transform="matrix(0.04320987654320987,0,0,0.04320987654320987,37.981481481481474,0)" xlink:href="#aB"/><use transform="matrix(0.04320987654320987,0,0,0.04320987654320987,41.395061728395056,0)" xlink:href="#aI"/><use transform="matrix(0.04320987654320987,0,0,0.04320987654320987,50.037037037037024,0)" xlink:href="#aK"/></g><g id="as"><use transform="matrix(0.04320987654320987,0,0,0.04320987654320987,0,0)" xlink:href="#ay"/><use transform="matrix(0.04320987654320987,0,0,0.04320987654320987,4.320987654320986,0)" xlink:href="#aL"/><use transform="matrix(0.04320987654320987,0,0,0.04320987654320987,12.962962962962958,0)" xlink:href="#aU"/></g><g id="at"><use transform="matrix(0.04320987654320987,0,0,0.04320987654320987,0,0)" xlink:href="#aU"/><use transform="matrix(0.04320987654320987,0,0,0.04320987654320987,5.141975308641975,0)" xlink:href="#aI"/><use transform="matrix(0.04320987654320987,0,0,0.04320987654320987,13.783950617283947,0)" xlink:href="#aM"/><use transform="matrix(0.04320987654320987,0,0,0.04320987654320987,22.42592592592592,0)" xlink:href="#aL"/><use transform="matrix(0.04320987654320987,0,0,0.04320987654320987,31.06790123456789,0)" xlink:href="#aU"/><use transform="matrix(0.04320987654320987,0,0,0.04320987654320987,36.209876543209866,0)" xlink:href="#aC"/><use transform="matrix(0.04320987654320987,0,0,0.04320987654320987,40.53086419753085,0)" xlink:href="#ax"/><use transform="matrix(0.04320987654320987,0,0,0.04320987654320987,43.944444444444436,0)" xlink:href="#aN"/><use transform="matrix(0.04320987654320987,0,0,0.04320987654320987,52.58641975308641,0)" xlink:href="#aQ"/></g><g id="au"><use transform="matrix(0.04320987654320987,0,0,0.04320987654320987,0,0)" xlink:href="#aL"/><use transform="matrix(0.04320987654320987,0,0,0.04320987654320987,8.641975308641973,0)" xlink:href="#ay"/></g><g id="av"><use transform="matrix(0.04320987654320987,0,0,0.04320987654320987,0,0)" xlink:href="#aC"/><use transform="matrix(0.04320987654320987,0,0,0.04320987654320987,4.320987654320986,0)" xlink:href="#aU"/><use transform="matrix(0.04320987654320987,0,0,0.04320987654320987,9.462962962962962,0)" xlink:href="#aI"/><use transform="matrix(0.04320987654320987,0,0,0.04320987654320987,18.104938271604937,0)" xlink:href="#aN"/><use transform="matrix(0.04320987654320987,0,0,0.04320987654320987,26.74691358024691,0)" xlink:href="#aR"/><use transform="matrix(0.04320987654320987,0,0,0.04320987654320987,35.388888888888886,0)" xlink:href="#aK"/></g></defs></g></svg>